<svg xmlns="http://www.w3.org/2000/svg" version="1.1" xmlns:xlink="http://www.w3.org/1999/xlink" xmlns:svgjs="http://svgjs.dev/svgjs" width="1440" height="560" preserveAspectRatio="none" viewBox="0 0 1440 560"><g mask="url(&quot;#SvgjsMask1508&quot;)" fill="none"><rect width="1440" height="560" x="0" y="0" fill="url(&quot;#SvgjsRadialGradient1509&quot;)"></rect><path d="M1160.32 176.98 a133.85 133.85 0 1 0 267.7 0 a133.85 133.85 0 1 0 -267.7 0z" fill="rgba(108, 7, 96, 0.67)" class="triangle-float2"></path><path d="M930.334,227.647C981.424,225.489,1024.097,193.033,1049.812,148.833C1075.697,104.341,1083.545,50.775,1059.807,5.102C1034.184,-44.197,985.894,-81.001,930.334,-81.046C874.707,-81.091,828.209,-43.341,800.496,4.891C772.897,52.926,764.1,111.86,791.997,159.722C819.723,207.29,875.324,229.97,930.334,227.647" fill="rgba(108, 7, 96, 0.67)" class="triangle-float1"></path><path d="M1139.546,510.096C1172.263,508.347,1202.268,492.417,1218.951,464.218C1235.956,435.475,1238.269,399.934,1221.961,370.791C1205.28,340.981,1173.706,322.354,1139.546,322.315C1105.319,322.276,1075.09,341.669,1056.802,370.601C1036.993,401.939,1025.023,441.687,1043.937,473.573C1062.591,505.022,1103.033,512.048,1139.546,510.096" fill="rgba(108, 7, 96, 0.67)" class="triangle-float1"></path><path d="M1124.057,183.48C1150.286,185.887,1175.454,170.422,1188.393,147.48C1201.123,124.909,1198.274,97.408,1185.227,75.019C1172.279,52.8,1149.771,36.729,1124.057,37.078C1098.87,37.42,1076.338,53.811,1065.7,76.643C1056.381,96.644,1066.788,117.928,1077.365,137.293C1088.613,157.885,1100.691,181.336,1124.057,183.48" fill="rgba(108, 7, 96, 0.67)" class="triangle-float1"></path><path d="M1215.069,374.097C1236.16,374.399,1256.446,366.114,1268.375,348.719C1282.193,328.57,1291.605,301.956,1278.819,281.136C1266.37,260.865,1238.774,259.932,1215.069,261.917C1195.309,263.572,1177.604,273.418,1167.47,290.462C1157.09,307.92,1154.301,329.575,1164.347,347.227C1174.49,365.05,1194.564,373.803,1215.069,374.097" fill="rgba(108, 7, 96, 0.67)" class="triangle-float3"></path><path d="M1206.193,205.738C1231.29,206.527,1254.006,190.066,1265.228,167.604C1275.432,147.18,1267.704,124.357,1256.901,104.244C1245.264,82.579,1230.785,57.645,1206.193,57.694C1181.644,57.743,1166.771,82.466,1155.835,104.445C1146.335,123.538,1143.764,144.986,1153.258,164.082C1163.971,185.631,1182.14,204.982,1206.193,205.738" fill="rgba(108, 7, 96, 0.67)" class="triangle-float1"></path><path d="M1053.245,230.067C1081.627,230.476,1109.535,217.105,1123.065,192.152C1136.073,168.162,1129.594,139.247,1114.99,116.193C1101.49,94.881,1078.473,81.919,1053.245,81.932C1028.041,81.945,1004.794,94.775,991.613,116.258C977.771,138.819,974.219,166.915,986.824,190.19C1000.004,214.528,1025.57,229.668,1053.245,230.067" fill="rgba(108, 7, 96, 0.67)" class="triangle-float3"></path><path d="M1160.937,191.921C1199.084,191.807,1233.1,170.695,1253.289,138.328C1274.865,103.738,1283.493,61.249,1265.157,24.837C1244.992,-15.206,1205.771,-45.188,1160.937,-45.064C1116.283,-44.94,1077.913,-14.412,1057.711,25.411C1039.301,61.702,1046.179,104.297,1067.621,138.884C1087.826,171.476,1122.59,192.036,1160.937,191.921" fill="rgba(108, 7, 96, 0.67)" class="triangle-float3"></path><path d="M824.192,379.763C856.398,378.974,889.351,368.293,905.261,340.28C921.013,312.545,912.634,279.239,897.111,251.375C881.06,222.562,857.168,195.381,824.192,194.759C790.396,194.121,763.512,219.412,746.343,248.529C728.839,278.215,718.358,314.788,735.94,344.427C753.268,373.637,790.239,380.595,824.192,379.763" fill="rgba(108, 7, 96, 0.67)" class="triangle-float1"></path><path d="M874.984,306.528C911.974,307.337,953.867,300.587,971.036,267.813C987.542,236.304,965.167,201.3,945.703,171.528C928.699,145.518,906.016,122.528,874.984,120.89C841.107,119.102,807.974,134.52,790.031,163.31C771.032,193.794,767.614,232.873,785.939,263.767C803.943,294.12,839.701,305.757,874.984,306.528" fill="rgba(108, 7, 96, 0.67)" class="triangle-float3"></path><path d="M1293.107,657.94C1329.807,657.983,1372.276,662.071,1392.325,631.331C1413.513,598.845,1402.046,555.871,1380.871,523.377C1361.695,493.951,1328.211,477.93,1293.107,479.077C1259.968,480.16,1232.816,501.005,1214.745,528.805C1194.432,560.054,1174.951,599.238,1194.286,631.101C1213.265,662.377,1256.523,657.898,1293.107,657.94" fill="rgba(108, 7, 96, 0.67)" class="triangle-float2"></path><path d="M798.6 275.62 a174.39 174.39 0 1 0 348.78 0 a174.39 174.39 0 1 0 -348.78 0z" fill="rgba(108, 7, 96, 0.67)" class="triangle-float1"></path><path d="M884.408,284.377C912.809,283.613,939.682,270.725,954.235,246.325C969.148,221.322,971.688,189.18,955.698,164.851C940.889,142.319,911.353,139.104,884.408,140.081C859.594,140.981,835.724,149.333,821.544,169.716C804.872,193.682,793.724,224.663,807.759,250.263C822.169,276.546,854.445,285.183,884.408,284.377" fill="rgba(108, 7, 96, 0.67)" class="triangle-float3"></path></g><defs><mask id="SvgjsMask1508"><rect width="1440" height="560" fill="#ffffff"></rect></mask><radialGradient cx="50%" cy="50%" r="772.53" gradientUnits="userSpaceOnUse" id="SvgjsRadialGradient1509"><stop stop-color="#0e2a47" offset="0"></stop><stop stop-color="rgba(0, 0, 0, 1)" offset="1"></stop></radialGradient><style>
                @keyframes float1 {
                    0%{transform: translate(0, 0)}
                    50%{transform: translate(-10px, 0)}
                    100%{transform: translate(0, 0)}
                }

                .triangle-float1 {
                    animation: float1 5s infinite;
                }

                @keyframes float2 {
                    0%{transform: translate(0, 0)}
                    50%{transform: translate(-5px, -5px)}
                    100%{transform: translate(0, 0)}
                }

                .triangle-float2 {
                    animation: float2 4s infinite;
                }

                @keyframes float3 {
                    0%{transform: translate(0, 0)}
                    50%{transform: translate(0, -10px)}
                    100%{transform: translate(0, 0)}
                }

                .triangle-float3 {
                    animation: float3 6s infinite;
                }
            </style></defs></svg>