<?xml version="1.0" standalone="no"?>
<!DOCTYPE svg PUBLIC "-//W3C//DTD SVG 20010904//EN"
 "http://www.w3.org/TR/2001/REC-SVG-20010904/DTD/svg10.dtd">
<svg version="1.0" xmlns="http://www.w3.org/2000/svg"
 width="1024.000000pt" height="576.000000pt" viewBox="0 0 1024.000000 576.000000"
 preserveAspectRatio="xMidYMid meet">

<g transform="translate(0.000000,576.000000) scale(0.100000,-0.100000)"
fill="#000000" stroke="none">
<path d="M3862 5139 c-5 -13 -29 -93 -53 -176 -39 -137 -46 -153 -66 -153 -12
0 -25 -5 -29 -11 -4 -8 -9 -7 -15 2 -7 11 -9 10 -9 -3 0 -12 -8 -18 -25 -18
-14 0 -24 3 -23 8 2 4 -1 7 -7 7 -5 0 -11 -8 -12 -17 -2 -12 4 -18 16 -18 24
0 33 -13 25 -35 -4 -9 -15 -15 -28 -13 -18 3 -21 -3 -24 -32 l-3 -35 63 -12
c37 -7 68 -19 75 -29 15 -21 16 -70 3 -419 -24 -676 -24 -665 -1 -665 12 0 21
5 21 11 0 6 9 8 20 4 17 -5 20 -2 20 24 0 36 13 47 31 24 11 -13 11 -17 2 -20
-15 -6 -17 -40 -3 -45 6 -2 11 -20 12 -41 1 -21 4 -40 8 -42 4 -3 9 254 12
570 2 315 6 577 10 580 3 4 15 2 27 -4 14 -8 22 -8 27 0 3 6 15 9 25 6 12 -3
19 0 19 9 0 13 30 23 115 40 37 7 34 8 -40 15 -119 9 -186 20 -181 28 3 4 6
44 7 89 1 45 5 80 9 77 3 -2 5 -29 2 -59 l-4 -54 54 -11 c99 -19 123 -18 123
4 0 13 8 21 23 23 17 3 22 10 22 30 l-1 27 -23 -28 c-24 -30 -27 -31 -153 -11
-34 5 -40 18 -23 44 9 13 11 13 20 0 7 -11 10 -11 10 -2 0 7 5 10 10 7 8 -5 8
-11 1 -19 -6 -7 -8 -16 -5 -19 8 -8 34 18 34 33 0 14 -26 41 -33 34 -3 -3 -8
4 -12 15 -7 23 -41 29 -48 9 -2 -7 -5 54 -6 137 -1 82 -4 151 -6 154 -3 2 -8
-7 -13 -20z m-52 -275 c-10 -21 -19 -33 -20 -26 0 15 32 74 37 68 2 -1 -6 -20
-17 -42z m-47 -1243 c2 -10 1 -25 -4 -32 -6 -10 -9 -4 -9 19 0 36 5 42 13 13z
m27 -52 c0 -5 -4 -9 -10 -9 -5 0 -10 7 -10 16 0 8 5 12 10 9 6 -3 10 -10 10
-16z m-39 -32 c-8 -8 -11 -7 -11 4 0 20 13 34 18 19 3 -7 -1 -17 -7 -23z"/>
<path d="M1432 3920 c0 -14 2 -19 5 -12 2 6 2 18 0 25 -3 6 -5 1 -5 -13z"/>
<path d="M1139 3853 c-1 -5 -1 -12 0 -17 4 -20 -11 -66 -20 -60 -8 5 -16 -266
-12 -411 1 -36 -2 -54 -7 -45 -5 9 -10 -3 -15 -36 -3 -27 -11 -59 -17 -71 -6
-12 -8 -29 -5 -37 4 -9 2 -16 -2 -16 -5 0 -15 32 -22 70 -7 39 -14 69 -16 67
-1 -2 1 -40 5 -85 7 -75 7 -82 -10 -82 -15 0 -18 -9 -18 -54 0 -50 -11 -78
-24 -58 -3 4 -30 5 -60 2 -45 -5 -53 -4 -44 7 20 25 -6 37 -41 20 -17 -9 -29
-12 -26 -7 3 5 -3 11 -12 13 -11 3 -8 5 10 6 15 0 27 5 27 10 0 5 3 17 6 26 6
13 1 16 -22 13 -20 -2 -29 -8 -28 -20 2 -21 -12 -24 -19 -5 -4 9 -6 9 -6 -1
-1 -7 4 -22 9 -32 6 -12 7 -21 0 -25 -5 -3 -12 16 -16 45 -7 50 -7 50 -43 50
-53 1 -155 33 -160 50 -2 8 -6 62 -9 120 -2 58 -5 106 -6 107 0 0 -10 3 -21 5
-19 3 -63 75 -64 105 -1 6 -6 15 -11 18 -6 3 -1 -19 11 -50 11 -31 18 -59 15
-62 -3 -3 -22 1 -43 10 -33 13 -39 20 -44 53 -6 37 -6 38 -8 7 -1 -36 -30 -60
-49 -41 -8 8 -13 8 -16 -3 -4 -11 -14 -197 -16 -287 0 -7 -5 -10 -10 -7 -6 3
-10 0 -10 -7 -1 -7 -9 3 -20 22 -15 28 -18 30 -17 13 1 -13 5 -23 9 -23 4 0 8
-4 8 -10 0 -5 -16 -10 -35 -10 -26 0 -33 3 -29 15 4 10 0 15 -12 16 -11 0 -14
3 -7 5 7 3 -1 18 -23 39 -18 18 -34 41 -34 50 0 9 -7 23 -15 31 -13 14 -15 12
-16 -13 0 -15 -3 -22 -6 -14 -8 20 -55 71 -65 71 -4 0 -8 -749 -8 -1665 l0
-1665 707 2 c618 3 707 5 710 18 3 11 2 11 -4 3 -5 -7 -14 -8 -21 -4 -9 5 -5
11 13 19 25 11 31 6 26 -22 -1 -5 4 -4 11 2 8 6 23 9 33 7 11 -2 24 -4 28 -4
5 -1 6 -5 2 -10 -3 -6 171 -10 460 -11 425 0 515 4 443 24 -13 3 -33 6 -44 6
-12 0 -24 7 -28 15 -3 9 0 15 9 15 8 0 15 4 15 9 0 12 197 24 216 13 13 -7 6
-15 -37 -39 -30 -17 -61 -33 -69 -36 -8 -3 834 -6 1872 -6 1500 -1 1887 2
1891 12 4 9 6 9 6 0 1 -7 6 -13 12 -13 5 0 7 6 3 13 -6 9 -4 9 7 -1 10 -9 128
-12 516 -12 474 0 504 1 501 17 -2 10 -7 21 -13 25 -15 11 -3 17 66 36 40 11
76 15 97 11 70 -14 52 -32 -50 -49 -37 -7 -72 -18 -79 -26 -9 -12 201 -14
1465 -14 l1476 0 0 1365 c0 1243 -2 1365 -16 1365 -14 0 -14 2 -3 16 11 14 10
18 -6 30 -10 8 -27 14 -37 14 -10 0 -17 5 -16 11 2 6 -3 14 -9 16 -8 3 -13 -4
-13 -16 0 -12 -6 -21 -14 -21 -16 0 -39 24 -30 32 2 3 -3 8 -12 12 -13 5 -15
2 -11 -14 4 -14 0 -20 -12 -20 -9 0 -22 -5 -28 -11 -8 -8 -14 -6 -22 9 -6 10
-9 21 -6 23 2 2 -17 5 -41 6 -34 1 -44 -2 -44 -14 0 -12 -3 -13 -13 -4 -10 8
-17 7 -25 -1 -7 -7 -12 -8 -12 -3 0 6 -11 11 -25 11 -31 2 -33 -11 -2 -21 22
-7 22 -7 -5 -18 -27 -11 -38 -27 -18 -27 6 0 10 -9 10 -20 0 -11 -5 -20 -11
-20 -6 0 -8 7 -5 16 3 9 2 12 -5 8 -7 -4 -10 9 -9 37 3 64 2 69 -15 69 -8 0
-14 -5 -13 -12 2 -7 -6 -12 -17 -13 -13 0 -20 -7 -21 -20 -2 -48 -3 -49 -25
-29 -12 10 -24 18 -27 16 -4 -2 -8 2 -10 8 -2 6 4 10 14 8 13 -2 18 2 15 12
-1 8 -3 86 -2 173 1 133 -1 157 -14 157 -8 0 -15 7 -15 16 0 14 3 14 15 4 13
-11 15 -8 15 15 0 20 -4 26 -15 21 -8 -3 -15 -1 -15 4 0 6 6 10 14 10 9 0 12
8 9 24 -6 27 -29 25 -36 -2 -3 -12 -5 -10 -6 6 -1 26 -18 30 -24 5 -4 -14 -5
-12 -6 5 0 12 -5 22 -10 22 -5 0 -17 8 -27 17 -16 16 -16 16 -10 -4 4 -12 1
-25 -8 -32 -11 -9 -14 -9 -13 1 1 33 -4 49 -13 43 -6 -4 -8 -11 -5 -16 4 -5 1
-9 -4 -9 -6 0 -11 7 -11 15 0 8 -7 15 -15 15 -8 0 -15 -6 -15 -14 0 -21 -21
-31 -31 -15 -6 10 -9 8 -9 -9 0 -13 -4 -21 -9 -18 -5 4 -11 0 -14 -6 -8 -25
-17 -1 -19 55 -2 52 -4 57 -25 57 -23 0 -34 -17 -49 -75 -4 -17 -1 -24 13 -28
15 -4 14 -5 -4 -6 -13 0 -23 -6 -23 -12 0 -5 5 -7 10 -4 6 3 10 -1 10 -9 0 -9
-9 -16 -20 -16 -14 0 -20 -6 -19 -22 0 -22 1 -22 9 -3 8 19 9 19 9 -2 1 -15
-5 -23 -15 -23 -8 0 -12 -5 -8 -11 3 -6 0 -15 -7 -20 -10 -6 -7 -9 11 -10 l25
-1 -25 -7 c-43 -12 -210 -14 -210 -2 0 6 -10 11 -22 10 -13 0 -17 -3 -10 -6 6
-2 10 -9 6 -14 -3 -5 3 -9 13 -10 10 0 14 -2 8 -5 -6 -2 -8 -27 -6 -55 2 -31
-1 -49 -7 -46 -5 4 -7 -5 -5 -21 3 -19 2 -23 -5 -14 -7 11 -10 11 -15 -2 -8
-19 -67 -22 -86 -3 -11 10 -13 9 -7 -1 4 -6 0 -19 -8 -28 -9 -8 -16 -11 -16
-5 0 6 -6 8 -13 5 -8 -3 -13 -15 -13 -27 1 -13 -4 -21 -11 -19 -7 1 -13 -4
-13 -10 0 -9 -4 -8 -10 2 -5 8 -10 40 -10 70 -1 79 -15 142 -36 157 -10 7 -12
13 -6 13 9 0 9 6 -2 23 -11 17 -15 87 -19 316 -5 270 -9 327 -21 290 -12 -40
-13 -59 -3 -59 9 0 8 -3 0 -8 -10 -6 -11 -67 -8 -261 3 -139 2 -258 -2 -264
-8 -14 -21 18 -23 58 -1 26 -3 27 -9 10 -6 -14 -8 -4 -9 33 0 28 4 52 9 52 5
0 9 5 9 11 0 6 -7 9 -15 5 -12 -4 -15 3 -15 29 0 19 -5 35 -11 35 -8 0 -8 4
-1 13 5 6 8 23 7 37 -2 14 -4 81 -5 150 -2 83 -5 113 -10 90 l-7 -35 -2 32 c0
17 -7 34 -14 36 -7 3 -5 6 6 6 11 1 17 9 17 23 0 21 0 21 -16 2 -15 -19 -15
-19 -11 2 4 19 0 21 -32 19 -54 -3 -57 -4 -41 -15 12 -8 12 -10 -5 -10 -15 0
-17 -2 -6 -9 11 -7 11 -9 0 -13 -9 -3 -13 -28 -13 -81 -1 -72 -7 -94 -19 -64
-3 6 -6 2 -6 -11 -1 -13 3 -21 8 -18 13 9 21 -35 10 -55 -5 -10 -7 -30 -3 -44
3 -14 2 -25 -4 -25 -5 0 -12 -7 -15 -14 -4 -10 -1 -13 9 -9 10 4 12 0 8 -11
-5 -12 -2 -15 9 -10 12 4 20 -4 30 -28 12 -29 12 -34 -2 -40 -12 -5 -11 -7 5
-7 12 -1 24 -7 26 -13 7 -19 0 -456 -7 -468 -3 -5 -1 -10 5 -10 6 0 8 -5 4
-11 -3 -6 0 -15 7 -20 10 -6 7 -9 -11 -9 -30 0 -27 -30 -29 294 -1 126 -4 227
-7 223 -6 -6 -9 -71 -14 -302 -1 -55 -5 -104 -8 -110 -11 -18 -7 -40 8 -47 12
-5 11 -7 -3 -7 -10 -1 -15 -6 -12 -11 3 -6 2 -10 -4 -10 -5 0 -12 -8 -15 -17
-3 -10 -4 5 -1 33 2 28 0 55 -5 60 -5 5 -10 104 -11 219 -1 116 -3 213 -5 216
-2 4 -30 0 -61 -7 -56 -13 -153 -16 -153 -4 0 3 6 12 13 20 7 8 0 6 -16 -4
-28 -17 -29 -17 -25 1 2 10 10 17 17 15 7 -1 10 2 6 8 -3 5 -13 10 -22 10 -9
0 -14 -3 -10 -6 7 -7 -17 -34 -31 -34 -5 0 -13 11 -16 25 -5 20 -13 25 -36 25
-17 0 -30 -4 -30 -10 0 -5 -5 -10 -11 -10 -5 0 -8 4 -5 9 3 5 -3 11 -14 14
-13 3 -20 0 -20 -9 0 -12 -4 -12 -20 -4 -11 6 -20 7 -21 3 0 -4 -4 1 -9 12 -6
15 -9 4 -10 -40 -2 -33 -6 -105 -10 -160 -6 -93 -7 -95 -8 -31 -3 103 -13 74
-13 -38 0 -53 -4 -96 -9 -96 -5 0 -9 30 -9 68 1 37 1 86 0 110 l-1 42 -40 0
c-29 0 -40 4 -40 15 0 9 10 15 26 15 14 0 23 -4 20 -8 -2 -4 4 -8 15 -8 15 0
19 7 18 31 -1 19 -3 23 -6 11 -4 -16 -11 -18 -51 -12 -25 3 -49 10 -53 14 -12
14 -20 62 -9 62 5 0 10 -6 10 -13 0 -16 101 -11 111 5 4 6 14 8 23 5 10 -4 16
-1 16 7 0 8 -4 16 -10 18 -5 2 -12 34 -15 72 -3 38 -11 76 -18 84 -10 13 -9
14 2 8 9 -6 12 -5 9 4 -6 20 -28 24 -28 6 0 -9 -4 -16 -10 -16 -5 0 -10 7 -10
15 0 8 -6 15 -14 15 -10 0 -12 7 -8 22 4 16 2 19 -8 13 -10 -6 -12 -4 -7 9 4
10 7 23 8 29 1 7 7 -6 14 -28 8 -22 14 -32 14 -22 1 20 21 24 21 3 0 -8 7 -16
15 -20 8 -3 15 -1 15 4 0 6 -4 10 -10 10 -5 0 -10 7 -10 15 0 8 4 15 8 15 4 0
8 9 9 20 1 11 -2 18 -6 15 -5 -2 -11 5 -14 16 -5 19 -11 20 -59 16 -68 -6 -88
-11 -96 -24 -4 -5 -16 -15 -27 -20 -15 -9 -19 -20 -16 -52 1 -27 -2 -41 -9
-41 -8 0 -11 11 -8 30 3 22 0 30 -10 30 -10 0 -13 -7 -8 -22 3 -13 6 -34 6
-47 0 -20 2 -22 15 -11 13 11 15 9 13 -19 -2 -34 -14 -41 -22 -13 -4 14 -5 14
-4 -3 0 -11 0 -44 -1 -72 -1 -56 -17 -72 -24 -25 -2 15 -5 -4 -7 -43 -1 -38
-6 -119 -10 -180 l-7 -110 -1 122 c-2 86 -6 123 -14 126 -8 4 -7 6 4 6 12 1
16 10 16 36 0 19 -4 35 -9 35 -4 0 -5 -7 -2 -17 4 -11 3 -14 -5 -9 -8 5 -11
38 -10 99 l1 92 7 -65 c7 -66 15 -48 10 23 -1 32 1 38 16 35 16 -2 18 3 15 32
-4 45 -11 52 -11 12 0 -27 -4 -32 -22 -32 -17 0 -19 3 -9 9 7 5 10 14 7 20 -5
7 -16 1 -31 -17 -23 -28 -23 -30 -25 -297 0 -148 -2 -271 -4 -273 -2 -2 -29
-6 -60 -9 -31 -3 -59 -10 -62 -14 -7 -12 -64 -11 -64 1 0 6 15 10 34 10 27 0
34 4 31 18 -2 9 -4 46 -4 81 -1 71 -10 77 -16 9 -6 -64 -7 -66 -16 -28 -7 31
-7 29 -6 -18 1 -30 -2 -52 -8 -52 -6 0 -11 8 -12 18 -8 135 -17 212 -24 212
-5 0 -10 -30 -11 -67 l-2 -68 -6 85 c-3 47 -7 69 -8 50 -2 -27 -5 -31 -12 -20
-7 11 -10 -4 -12 -50 l-1 -65 -6 60 -6 60 -7 -45 c-4 -25 -7 -82 -7 -127 0
-46 -5 -92 -11 -104 -7 -12 -10 -30 -7 -40 6 -23 -8 -25 -17 -2 -5 12 -9 14
-18 5 -7 -7 -29 -12 -51 -12 -23 0 -36 -4 -32 -10 4 -6 -8 -10 -30 -10 -33 0
-35 -2 -25 -20 7 -14 7 -20 0 -20 -10 0 -14 19 -11 56 1 13 -8 25 -24 32 -21
10 -25 9 -26 -6 -1 -11 -4 -8 -9 8 -7 22 -8 21 -9 -12 -1 -24 4 -38 12 -38 6
0 4 -5 -6 -11 -9 -6 -15 -14 -12 -20 6 -9 1 -10 -92 -14 -39 -1 -50 1 -46 12
3 7 0 13 -6 13 -6 0 -11 5 -11 10 0 6 28 10 65 10 59 0 65 2 65 21 0 11 -4 17
-10 14 -5 -3 -10 1 -10 9 0 9 4 16 9 16 5 0 6 15 2 33 -3 17 -6 53 -6 80 0 29
-4 47 -11 47 -7 0 -12 -6 -11 -12 0 -7 -1 -31 -2 -53 -5 -109 -28 55 -31 223
0 13 -5 20 -10 17 -6 -4 -8 -11 -5 -16 4 -5 0 -9 -8 -9 -8 0 -18 -7 -21 -16
-9 -22 -8 -24 10 -24 8 0 12 -5 9 -10 -4 -6 -10 -8 -14 -5 -9 5 -21 -52 -21
-102 0 -25 -4 -31 -15 -27 -13 5 -15 38 -14 230 0 122 -2 228 -6 233 -3 6 -2
11 2 11 5 0 9 18 10 40 2 34 -2 41 -29 55 -19 9 -35 11 -42 6 -6 -5 -29 -11
-52 -13 -23 -3 -47 -9 -54 -13 -9 -5 -11 -4 -6 3 5 8 -3 12 -23 12 -21 0 -32
-6 -36 -20 -4 -11 -11 -18 -16 -15 -5 4 -9 -41 -9 -110 0 -89 3 -116 13 -112
14 5 49 -32 41 -44 -3 -5 0 -9 5 -9 6 0 11 6 11 13 0 7 3 8 8 2 4 -5 13 -10
20 -11 36 -3 42 -5 42 -15 0 -6 -7 -9 -15 -5 -8 3 -15 1 -15 -4 0 -6 6 -10 13
-10 9 0 12 -9 9 -30 l-4 -29 -69 2 c-46 1 -70 -2 -73 -10 -3 -6 -2 -13 2 -15
4 -2 5 -59 2 -128 -5 -109 -10 -111 -14 -3 -3 65 -16 43 -17 -28 -1 -41 -3
-66 -6 -56 -2 9 -9 17 -15 17 -6 0 -8 -8 -5 -17 2 -10 6 -24 8 -32 2 -8 -4
-17 -15 -19 -11 -2 -16 0 -12 7 11 18 -2 13 -21 -8 -14 -15 -36 -21 -88 -25
-39 -3 -71 -5 -72 -5 -1 -1 0 -8 4 -17 5 -12 0 -15 -23 -12 -17 2 -30 9 -30
18 -1 8 -2 23 -3 32 -1 14 -13 18 -63 21 l-63 3 63 2 c38 1 62 6 62 13 0 7
-10 9 -25 7 -14 -3 -25 -1 -25 3 0 5 12 10 28 10 l27 1 -30 8 -30 8 30 2 30 2
-30 8 -30 8 30 2 c25 2 26 3 8 7 -13 3 -23 12 -23 22 0 21 -19 41 -40 41 -13
0 -13 -1 0 -10 10 -6 11 -10 3 -10 -22 0 -14 -28 10 -33 19 -4 18 -4 -5 -6
-31 -1 -32 2 -28 117 1 46 -1 52 -19 52 -21 0 -21 -3 -21 -303 l0 -304 186 5
c199 5 204 4 204 -45 0 -21 -4 -21 -103 -21 -174 1 -227 -2 -227 -12 0 -5 12
-11 28 -11 27 -2 27 -2 2 -6 -14 -3 -30 -9 -36 -14 -6 -4 -36 -11 -67 -15 -31
-4 -57 -11 -57 -16 0 -13 44 -27 51 -16 9 14 20 12 30 -4 7 -10 9 -10 9 0 0 7
4 11 9 8 5 -3 29 -7 55 -7 44 -2 59 -12 34 -22 -7 -3 -3 -6 9 -6 17 -1 21 3
17 17 -4 11 -3 13 3 5 6 -9 34 -11 95 -8 76 4 87 2 91 -13 4 -16 5 -15 6 1 1
15 10 17 64 16 34 -1 68 -7 76 -13 11 -8 13 -8 7 2 -5 9 1 11 28 6 22 -3 36
-1 36 5 0 6 -6 11 -12 11 -18 1 -50 70 -33 70 7 0 23 -8 36 -19 13 -10 41 -24
62 -30 20 -7 37 -17 37 -22 0 -6 -5 -7 -10 -4 -6 4 -17 1 -25 -5 -8 -7 -15 -9
-15 -5 0 4 -12 0 -26 -10 -20 -13 -28 -14 -40 -4 -11 9 -14 9 -14 -1 0 -8 -9
-11 -24 -8 -14 3 -31 1 -38 -4 -8 -6 4 -8 34 -6 26 1 48 -2 47 -7 0 -6 -8 -9
-17 -7 -15 2 -15 1 -2 -7 8 -6 28 -11 44 -11 29 0 29 0 8 -18 -13 -12 -18 -23
-12 -31 6 -11 10 -9 19 8 7 11 16 21 20 21 13 0 24 -34 12 -38 -6 -2 -11 -12
-11 -22 0 -10 -7 -20 -15 -24 -10 -4 -15 1 -15 14 0 11 -6 20 -13 20 -8 0 -19
11 -27 24 -20 38 -56 41 -52 5 1 -3 -18 -6 -41 -6 l-42 -1 33 10 c35 12 44 38
12 38 -11 0 -20 -4 -20 -10 0 -5 -6 -7 -12 -5 -7 2 -30 6 -50 9 -31 5 -38 3
-39 -12 0 -13 -2 -12 -9 6 -5 12 -12 22 -16 22 -3 0 -3 -7 0 -16 5 -13 4 -14
-7 -6 -7 6 -25 9 -39 7 -14 -3 -37 -1 -50 4 -22 9 -21 10 9 10 22 1 36 8 43
21 7 14 7 20 0 20 -5 0 -10 -5 -10 -10 0 -6 -20 -9 -45 -8 -33 1 -49 -3 -58
-16 -12 -16 -14 -16 -26 -2 -7 8 -19 12 -28 9 -8 -3 -19 0 -24 8 -6 10 -9 8
-9 -9 0 -20 -3 -21 -20 -12 -11 6 -20 8 -20 4 0 -3 -6 -1 -14 5 -9 8 -15 8
-18 2 -5 -17 -93 -16 -117 1 -12 9 -17 18 -11 20 7 2 8 16 2 43 l-8 40 -69 6
-70 5 73 2 c56 2 72 5 72 17 0 11 -12 15 -52 15 -67 0 -59 6 17 13 33 3 71 10
85 16 18 7 -21 10 -150 13 -166 2 -168 3 -47 5 l129 4 -7 417 c-5 229 -8 422
-8 427 0 6 3 22 6 37 l7 27 -96 3 c-53 2 -98 -1 -101 -6 -3 -5 -104 -7 -230
-4 l-225 5 4 -83 c2 -46 0 -84 -4 -84 -4 0 -8 11 -8 25 0 14 -4 25 -10 25 -5
0 -10 10 -10 23 0 28 -19 61 -21 37 -1 -8 -1 -18 0 -22 0 -5 -6 -8 -14 -8 -12
0 -13 4 -6 19 9 16 6 19 -19 23 -28 4 -29 3 -25 -31 2 -20 4 -44 4 -53 1 -11
6 -15 15 -12 8 3 17 0 21 -6 4 -7 -2 -9 -20 -6 -34 6 -37 9 -39 40 -2 36 -16
33 -16 -4 0 -21 -4 -28 -14 -24 -17 6 -28 -36 -32 -128 l-4 -68 112 0 111 0
-5 70 c-5 66 -4 70 16 69 15 -1 16 -3 5 -6 -28 -7 -1 -63 29 -63 17 0 22 -4
19 -14 -4 -10 6 -17 31 -24 l37 -10 -37 -1 c-23 -1 -37 -6 -35 -13 1 -6 -9
-15 -23 -19 -18 -5 -7 -8 40 -10 63 -2 64 -2 20 -9 l-45 -6 39 -5 c39 -4 64
-29 29 -29 -15 0 -15 -2 -4 -9 12 -8 12 -12 2 -25 -11 -14 -11 -16 5 -17 18 0
18 -1 -1 -9 -17 -7 -17 -9 -2 -9 9 -1 17 -5 17 -11 0 -5 -8 -10 -17 -11 -16 0
-15 -1 2 -8 19 -8 19 -8 0 -19 -18 -10 -18 -11 -2 -12 25 0 21 -20 -5 -21 -18
-1 -17 -3 7 -9 l30 -7 -25 -11 -25 -11 25 -1 c25 -2 25 -2 2 -8 -13 -4 -23
-11 -23 -17 0 -5 10 -13 23 -17 l23 -6 -22 -1 c-13 -1 -23 -5 -23 -11 0 -5 10
-11 23 -11 18 -1 16 -3 -8 -9 -24 -6 -26 -8 -7 -9 12 0 22 -5 22 -11 0 -5 -10
-10 -22 -11 -22 -1 -22 -1 2 -8 24 -7 24 -7 5 -20 -15 -9 -16 -11 -2 -7 20 6
24 -19 4 -27 -7 -3 -5 -6 6 -6 9 -1 17 -5 17 -10 0 -5 -8 -12 -17 -14 -17 -4
-17 -5 0 -6 9 0 17 -8 17 -17 0 -12 4 -14 13 -7 13 11 47 13 47 4 -1 -3 -8
-17 -16 -31 -8 -14 -13 -17 -10 -7 3 9 1 17 -4 17 -6 0 -10 -17 -10 -37 0 -26
3 -34 9 -24 7 11 10 9 16 -9 4 -12 2 -27 -4 -33 -8 -8 -11 -6 -12 9 0 10 -3
13 -6 7 -2 -7 -13 -13 -24 -13 -10 0 -18 -3 -18 -7 3 -19 -2 -33 -12 -33 -7 0
-10 23 -7 65 3 64 3 65 -23 65 -15 0 -29 7 -32 15 -6 15 8 30 21 22 4 -3 8 13
9 34 2 37 1 39 -17 29 -23 -12 -26 -26 -7 -33 6 -3 -2 -6 -20 -6 -49 -1 -54
-28 -9 -44 6 -2 1 -13 -10 -24 -34 -37 -42 -49 -47 -69 -3 -14 -5 -11 -6 9 0
15 4 27 9 27 6 0 10 5 10 10 0 6 -7 10 -15 10 -8 0 -15 5 -15 11 0 7 10 9 24
7 15 -3 27 0 30 8 3 8 0 11 -10 7 -12 -5 -18 17 -13 53 0 4 -5 11 -13 15 -10
7 -10 9 0 9 7 0 12 15 12 39 0 37 -2 40 -32 44 l-33 4 33 1 c27 2 32 6 32 26
0 13 -6 27 -12 29 -10 4 -10 6 0 6 6 1 12 10 12 22 0 15 -5 19 -15 15 -8 -3
-15 -1 -15 4 0 6 7 10 15 10 8 0 15 9 15 21 0 11 -4 17 -10 14 -6 -3 -10 -1
-10 4 0 6 5 11 10 11 21 0 9 19 -17 28 l-28 10 30 3 c27 2 26 3 -10 9 -22 4
-30 8 -17 9 17 1 22 7 23 29 0 24 1 24 8 7 5 -11 7 -23 4 -27 -2 -5 1 -8 6 -8
6 0 11 14 11 30 0 28 -2 30 -40 30 l-40 0 0 -235 0 -235 -27 1 c-16 1 -21 3
-12 6 25 6 29 46 29 264 l0 199 -57 0 -58 0 0 -121 c1 -66 -2 -122 -6 -125 -4
-2 -7 82 -8 187 0 106 -3 194 -6 197 -3 3 -5 -14 -5 -37 0 -23 -4 -40 -9 -36
-15 9 -19 -6 -22 -83 -2 -40 -7 -72 -11 -72 -4 0 -8 4 -8 9 0 5 -8 12 -17 14
-17 4 -17 5 0 6 18 1 25 41 7 41 -5 0 -7 -7 -4 -15 4 -10 0 -15 -13 -15 -16 0
-19 -5 -15 -30 2 -16 9 -30 14 -30 5 0 7 -4 3 -9 -3 -6 14 -12 37 -14 l43 -4
-42 -1 c-42 -2 -48 -8 -44 -41 2 -7 -2 -10 -8 -7 -6 4 -10 17 -9 29 0 12 -4
72 -11 132 -7 61 -13 120 -14 133 -1 12 -5 22 -10 22 -5 0 -7 -16 -4 -35 3
-24 1 -35 -8 -35 -8 0 -11 12 -8 35 3 34 2 35 -29 34 -19 -1 -25 -3 -15 -6 11
-3 16 -11 13 -19 -3 -8 -2 -13 3 -10 5 4 7 -3 4 -14 -5 -18 -7 -18 -17 -5 -9
13 -13 11 -23 -10 -9 -19 -8 -25 1 -25 7 0 13 -7 13 -15 0 -18 -13 -20 -20 -2
-4 7 -6 6 -6 -5 -1 -9 7 -19 17 -21 16 -4 16 -5 0 -6 -10 0 -18 -5 -18 -11 0
-5 -7 -10 -15 -10 -16 0 -16 -20 -1 -32 6 -3 11 -18 13 -32 3 -19 -1 -26 -14
-27 -16 0 -16 -1 2 -9 17 -7 17 -9 3 -9 -11 -1 -18 -10 -19 -23 -4 -59 -15 60
-18 178 -2 140 -17 236 -21 139 -1 -27 -1 -63 0 -78 1 -15 -4 -35 -10 -43 -10
-11 -10 -14 -1 -14 7 0 9 -5 5 -12 -4 -6 -6 -39 -5 -74 2 -53 0 -63 -16 -67
-16 -4 -16 -5 0 -6 21 -1 23 -21 2 -21 -8 0 -15 -4 -15 -10 0 -5 7 -7 15 -4 8
4 15 1 15 -5 0 -6 -9 -11 -20 -11 -19 0 -20 7 -21 98 -1 53 -3 104 -4 112 -1
8 -3 95 -4 193 0 97 -4 177 -8 177 -5 0 -7 -81 -5 -179 3 -175 3 -180 -17
-178 -16 1 -19 7 -17 34 1 18 -2 35 -8 37 -7 3 -6 5 1 5 9 1 10 8 3 26 -7 18
-6 25 3 25 8 0 7 4 -3 10 -13 9 -13 10 0 10 9 0 11 3 4 8 -13 9 -13 115 1 124
7 5 7 8 0 8 -19 0 -16 48 3 55 16 6 16 7 0 16 -20 11 -24 59 -5 59 8 0 7 3 -3
10 -12 7 -12 12 -2 22 13 13 16 29 5 27 -20 -3 -24 2 -13 16 10 12 10 19 2 27
-7 7 -12 20 -12 30 0 10 -4 18 -10 18 -5 0 -7 7 -4 15 9 22 -32 28 -148 21
-235 -13 -313 -19 -320 -23 -5 -2 -8 -31 -8 -64 0 -54 2 -59 21 -59 21 0 21
-3 15 -87 -4 -49 -7 -193 -7 -320 l-1 -233 -61 0 -62 0 1 30 c2 47 3 48 22 53
9 3 2 5 -15 6 -27 1 -33 -3 -33 -20 0 -16 -4 -19 -20 -14 -15 5 -20 2 -20 -13
0 -15 5 -18 25 -14 18 3 25 0 25 -10 0 -11 -8 -14 -27 -12 -16 2 -23 2 -18 -1
6 -3 9 -74 7 -192 -2 -104 -1 -212 3 -240 6 -48 9 -53 31 -53 29 0 54 -21 54
-44 0 -13 -7 -15 -40 -10 l-41 7 3 -97 c1 -54 5 -99 9 -101 3 -3 19 15 34 40
16 24 32 42 37 39 5 -4 7 -8 4 -11 -11 -12 15 -42 30 -36 13 5 11 -3 -7 -35
-23 -40 -36 -47 -86 -45 -7 1 -13 -6 -13 -14 0 -13 32 -12 90 3 28 7 38 -11
41 -73 l4 -61 -33 0 c-19 0 -36 6 -39 14 -3 8 -16 14 -28 14 -13 0 -26 6 -28
13 -3 6 -6 -41 -6 -105 -1 -71 3 -118 9 -118 6 0 6 -9 0 -26 -6 -15 -7 -54 -4
-89 l6 -62 117 -12 c260 -26 430 -39 499 -37 39 0 73 -2 75 -6 1 -4 49 -10
107 -13 128 -7 170 -13 170 -25 0 -17 -89 -60 -127 -60 -21 0 -92 -7 -158 -15
-66 -9 -223 -27 -350 -40 -126 -14 -279 -32 -340 -40 -199 -26 -207 -27 -200
-16 3 6 1 19 -4 28 -8 14 -10 15 -11 3 0 -9 -3 -11 -8 -5 -4 6 -20 11 -37 13
-16 1 -52 4 -80 7 -27 2 -78 8 -113 14 -35 6 -73 6 -85 2 -16 -6 -1 -10 58
-16 44 -4 87 -12 95 -17 11 -7 6 -8 -15 -5 -16 3 -81 11 -142 18 -114 13 -140
22 -61 21 59 -1 27 16 -40 22 -27 2 -54 6 -58 9 -5 2 -38 7 -74 11 -36 3 -114
14 -175 22 -60 9 -149 17 -197 18 -47 0 -84 4 -81 9 2 4 -11 7 -29 8 -18 0
-51 2 -73 4 -22 1 -48 3 -57 4 -10 0 -18 7 -18 15 0 11 36 14 181 18 143 3
182 7 190 19 5 8 9 9 9 2 0 -7 13 -10 38 -7 72 8 448 44 501 48 52 4 54 5 56
32 2 16 8 180 14 364 6 184 14 350 17 368 l5 34 -40 -7 c-28 -5 -41 -3 -41 5
0 6 5 8 10 5 5 -3 10 -1 10 4 0 14 -17 14 -25 1 -9 -15 -25 -12 -25 4 0 8 8
17 18 19 13 4 11 5 -5 6 -18 1 -23 -4 -23 -23 0 -22 -31 -42 -44 -28 -3 3 -6
48 -6 101 0 53 -4 91 -8 85 -4 -6 -48 -11 -99 -13 l-93 -2 0 25 c0 14 -5 26
-11 26 -7 0 -10 21 -7 60 3 63 2 66 -22 50 -11 -7 -11 -10 -2 -10 7 0 10 -4 7
-10 -16 -25 -25 -5 -25 54 0 53 -3 65 -17 69 -17 4 -17 5 0 6 15 1 17 12 17
80 0 74 1 79 20 74 16 -4 20 -14 20 -48 0 -25 5 -45 13 -48 9 -4 9 -6 0 -6
-15 -1 -17 -49 -3 -71 6 -9 5 -17 -3 -22 -9 -6 -9 -10 2 -17 7 -5 10 -14 7
-20 -4 -6 -2 -11 3 -11 6 0 11 5 11 12 0 17 11 3 14 -19 2 -11 12 -18 25 -19
12 -1 25 -5 29 -9 4 -5 -1 -5 -10 -2 -26 9 -42 -17 -21 -34 15 -12 16 -12 10
4 -4 9 -2 17 5 17 6 0 8 -11 4 -31 -3 -17 -1 -40 5 -51 11 -20 17 -20 126 -14
79 5 113 4 109 -3 -4 -5 -13 -8 -20 -5 -7 3 -18 -2 -25 -10 -9 -11 -7 -18 13
-34 14 -10 23 -22 19 -25 -5 -6 68 3 75 9 4 2 15 275 24 562 l4 103 -73 -4
c-49 -3 -73 0 -73 7 0 7 -3 6 -8 -2 -5 -7 -26 -11 -53 -10 -24 1 -63 1 -86 0
-39 -2 -43 -4 -44 -29 l-1 -28 -8 25 c-8 24 -8 24 -9 3 -1 -13 -5 -23 -10 -23
-5 0 -7 10 -5 23 4 19 3 19 -4 3 -11 -25 -42 -29 -64 -9 -16 14 -18 14 -24 0
-3 -9 -2 -21 2 -28 5 -8 3 -9 -5 -4 -8 4 -10 17 -7 31 5 20 3 24 -18 24 -21 0
-32 15 -40 52 0 4 -6 12 -13 19 -6 6 -9 18 -6 25 3 9 -1 14 -13 12 -11 0 -36
0 -56 0 -31 2 -38 6 -38 23 0 11 -4 18 -9 15 -5 -3 -11 3 -14 14 -4 14 -14 20
-34 20 -21 0 -24 3 -13 10 8 5 12 12 8 15 -3 3 -13 -1 -22 -10 -15 -15 -16
-15 -16 0 0 10 -5 13 -12 9 -8 -5 -9 -2 -5 10 4 10 3 15 -3 11 -14 -9 -12 -32
3 -38 6 -3 0 -6 -15 -6 -28 -1 -40 23 -16 31 9 3 9 6 0 12 -7 4 -12 2 -12 -4
0 -6 -4 -8 -10 -5 -6 4 -10 -6 -11 -22 l-1 -28 -8 25 c-7 21 -8 22 -9 5 -2
-20 -2 -20 -16 -1 -8 10 -16 24 -18 30 -3 6 -17 -4 -32 -21 -15 -18 -32 -33
-37 -33 -5 0 -8 29 -7 65 1 36 -1 68 -5 72 -3 3 -6 -1 -6 -10 0 -10 -7 -17
-15 -17 -18 0 -20 16 -2 23 10 4 10 6 0 6 -22 2 -14 19 10 24 l22 4 -22 2
c-13 0 -23 5 -23 11 0 5 3 9 8 9 19 -3 33 2 27 11 -3 5 -12 7 -20 3 -8 -3 -15
0 -15 5 0 6 10 13 23 15 l22 4 -22 2 c-31 1 -33 51 -3 51 11 0 20 5 20 11 0 6
-9 8 -20 4 -11 -4 -20 -2 -20 4 0 6 4 11 8 11 4 0 8 12 7 27 0 15 6 28 13 29
6 1 19 2 27 3 8 0 15 6 15 12 0 6 -9 8 -20 4 -11 -4 -20 -2 -20 4 0 6 10 11
22 11 12 0 18 3 14 7 -4 4 -15 8 -24 8 -9 0 -16 6 -14 13 1 9 -6 11 -25 6 -55
-12 -63 -16 -58 -25 4 -5 -4 -5 -19 1 l-26 10 0 -268 c0 -279 -3 -312 -26
-312 -15 0 -35 -39 -27 -52 2 -5 -1 -8 -6 -8 -6 0 -11 -7 -11 -15 0 -9 -6 -12
-15 -9 -9 4 -16 0 -16 -7 -1 -8 -4 0 -8 16 -6 30 -25 39 -47 23 -7 -5 -17 -7
-24 -6 -7 2 -14 -9 -15 -24 -2 -16 -6 -37 -10 -48 -5 -15 -2 -20 12 -21 14 0
15 -2 3 -6 -8 -3 -18 -11 -22 -17 -4 -6 -8 35 -8 92 l0 103 -55 -3 -55 -3 -1
-130 c-1 -89 -4 -119 -9 -95 -7 28 -8 21 -7 -32 1 -37 -2 -63 -6 -59 -4 4 -9
43 -10 86 -1 57 -6 80 -16 83 -8 3 -11 0 -7 -6 3 -6 2 -13 -4 -17 -5 -3 -10
-18 -10 -32 0 -36 -12 -21 -19 24 -6 35 -9 38 -40 39 -25 0 -36 6 -41 20 -4
10 -2 22 4 26 6 4 -4 8 -22 8 -23 0 -31 -4 -26 -12 5 -8 0 -9 -17 -4 -25 8
-118 8 -130 0 -4 -2 -8 -63 -8 -136 -1 -73 -4 -135 -7 -137 -3 -3 -4 74 -2
172 2 135 0 178 -9 182 -10 3 -13 -17 -13 -83 0 -81 -2 -88 -20 -88 -25 0 -26
13 -2 19 10 3 4 5 -13 6 -29 2 -29 2 -11 16 19 15 19 15 -5 16 -18 1 -16 3 11
9 l35 7 -32 2 c-25 1 -33 5 -33 20 0 11 8 22 18 24 12 3 11 5 -6 6 -19 1 -22
5 -17 21 4 12 2 20 -5 20 -7 0 -10 8 -7 20 3 11 1 20 -5 20 -5 0 -9 10 -8 23
1 12 2 37 1 55 l-1 34 -89 -4 c-105 -3 -100 3 -97 -134 l2 -84 -41 0 -42 0 -6
107 c-4 58 -7 134 -8 167 0 43 -3 55 -9 41 -9 -21 -12 62 -10 298 l1 127 -28
1 c-15 0 -48 3 -73 6 -84 11 -181 8 -189 -6 -6 -10 -10 -9 -14 3 -6 16 -26 22
-28 9z m5716 -303 c3 -5 1 -10 -4 -10 -6 0 -11 5 -11 10 0 6 2 10 4 10 3 0 8
-4 11 -10z m1005 -90 c0 -5 -12 -10 -27 -9 -25 0 -26 1 -8 9 27 12 35 12 35 0z
m115 0 c3 -5 1 -10 -4 -10 -6 0 -11 5 -11 10 0 6 2 10 4 10 3 0 8 -4 11 -10z
m-5248 -26 c-3 -3 -12 -4 -19 -1 -8 3 -5 6 6 6 11 1 17 -2 13 -5z m1888 -4 c3
-5 1 -10 -4 -10 -6 0 -11 5 -11 10 0 6 2 10 4 10 3 0 8 -4 11 -10z m2092 -22
c-3 -7 -5 -2 -5 12 0 14 2 19 5 13 2 -7 2 -19 0 -25z m1260 10 c-3 -8 -6 -5
-6 6 -1 11 2 17 5 13 3 -3 4 -12 1 -19z m-117 2 c0 -5 -8 -10 -17 -10 -15 0
-16 2 -3 10 19 12 20 12 20 0z m-69 -22 c0 -7 2 -30 4 -50 1 -21 -1 -38 -6
-38 -10 0 -10 0 -13 58 -1 23 2 42 6 42 4 0 8 -6 9 -12z m-2088 -25 c-7 -2
-19 -2 -25 0 -7 3 -2 5 12 5 14 0 19 -2 13 -5z m-2896 -25 c-3 -8 -6 -5 -6 6
-1 11 2 17 5 13 3 -3 4 -12 1 -19z m3150 16 c-3 -3 -12 -4 -19 -1 -8 3 -5 6 6
6 11 1 17 -2 13 -5z m-260 -10 c-3 -3 -12 -4 -19 -1 -8 3 -5 6 6 6 11 1 17 -2
13 -5z m40 0 c-3 -3 -12 -4 -19 -1 -8 3 -5 6 6 6 11 1 17 -2 13 -5z m96 -1
c-13 -2 -33 -2 -45 0 -13 2 -3 4 22 4 25 0 35 -2 23 -4z m-166 -19 c-3 -3 -12
-4 -19 -1 -8 3 -5 6 6 6 11 1 17 -2 13 -5z m3026 -1 c-7 -2 -19 -2 -25 0 -7 3
-2 5 12 5 14 0 19 -2 13 -5z m-3403 -13 c0 -5 -7 -10 -16 -10 -8 0 -12 5 -9
10 3 6 10 10 16 10 5 0 9 -4 9 -10z m2777 -67 c-3 -10 -5 -2 -5 17 0 19 2 27
5 18 2 -10 2 -26 0 -35z m-362 27 c3 -5 1 -10 -4 -10 -6 0 -11 5 -11 10 0 6 2
10 4 10 3 0 8 -4 11 -10z m-1868 -6 c-3 -3 -12 -4 -19 -1 -8 3 -5 6 6 6 11 1
17 -2 13 -5z m-499 -37 c9 -3 -1 -5 -22 -6 -39 -1 -39 -1 -20 17 14 14 20 15
22 6 2 -7 11 -15 20 -17z m172 23 c0 -5 -13 -10 -30 -10 -16 0 -30 4 -30 8 0
4 14 9 30 10 17 1 30 -2 30 -8z m3897 -12 c-3 -8 -6 -5 -6 6 -1 11 2 17 5 13
3 -3 4 -12 1 -19z m-6260 -10 c-3 -8 -6 -5 -6 6 -1 11 2 17 5 13 3 -3 4 -12 1
-19z m5363 2 c0 -5 -21 -9 -47 -8 l-48 1 45 7 c25 4 46 8 48 8 1 1 2 -2 2 -8z
m-256 -9 c4 -5 -3 -7 -14 -4 -23 6 -26 13 -6 13 8 0 17 -4 20 -9z m136 -1
l-25 -8 24 -1 c13 -1 22 -4 19 -7 -4 -3 -28 -2 -55 2 l-48 8 35 7 c19 3 44 7
55 7 16 0 14 -2 -5 -8z m1222 -12 c-7 -7 -12 -8 -12 -2 0 14 12 26 19 19 2 -3
-1 -11 -7 -17z m-1702 -17 c0 -6 -4 -13 -10 -16 -5 -3 -10 1 -10 9 0 9 5 16
10 16 6 0 10 -4 10 -9z m1757 -23 c-3 -8 -6 -5 -6 6 -1 11 2 17 5 13 3 -3 4
-12 1 -19z m-4380 -10 c-3 -8 -6 -5 -6 6 -1 11 2 17 5 13 3 -3 4 -12 1 -19z
m50 1 c-14 -8 -22 -8 -30 0 -8 8 -3 11 19 11 25 -1 27 -2 11 -11z m4070 -11
c-3 -8 -6 -5 -6 6 -1 11 2 17 5 13 3 -3 4 -12 1 -19z m-4059 -13 c-7 -8 -87
-9 -95 -2 -3 4 18 7 47 7 29 0 51 -2 48 -5z m529 -1 c-3 -3 -12 -4 -19 -1 -8
3 -5 6 6 6 11 1 17 -2 13 -5z m-5700 -46 c-3 -8 -6 -5 -6 6 -1 11 2 17 5 13 3
-3 4 -12 1 -19z m3150 12 c14 0 14 -2 0 -18 -13 -15 -14 -21 -4 -31 10 -10 8
-12 -8 -9 -13 2 -20 11 -19 26 0 12 -5 22 -13 22 -8 0 -11 5 -8 11 4 6 14 8
22 5 8 -3 22 -6 30 -6z m4603 0 c0 -5 -5 -10 -11 -10 -5 0 -7 5 -4 10 3 6 8
10 11 10 2 0 4 -4 4 -10z m-4703 -6 c-3 -3 -12 -4 -19 -1 -8 3 -5 6 6 6 11 1
17 -2 13 -5z m6140 0 c-3 -3 -12 -4 -19 -1 -8 3 -5 6 6 6 11 1 17 -2 13 -5z
m-3885 -16 c-9 -9 -15 -9 -24 0 -9 9 -7 12 12 12 19 0 21 -3 12 -12z m720 -18
c-2 -16 -6 -30 -8 -30 -2 0 -4 14 -4 30 0 17 4 30 8 30 5 0 7 -13 4 -30z
m-5372 10 c0 -5 -2 -10 -4 -10 -3 0 -8 5 -11 10 -3 6 -1 10 4 10 6 0 11 -4 11
-10z m2416 -30 c1 -16 -2 -27 -7 -24 -11 6 -12 54 -1 54 4 0 8 -13 8 -30z
m1754 20 c0 -5 -7 -10 -16 -10 -8 0 -12 5 -9 10 3 6 10 10 16 10 5 0 9 -4 9
-10z m4350 -177 l-5 -188 -5 180 c-3 99 -4 183 -2 188 13 31 16 -19 12 -180z
m-143 171 c-3 -3 -12 -4 -19 -1 -8 3 -5 6 6 6 11 1 17 -2 13 -5z m-7789 -169
l-3 -55 -28 15 c-15 8 -25 10 -22 5 4 -6 -5 -10 -19 -10 -21 0 -26 5 -26 25 0
25 -7 29 -33 19 -9 -3 -13 -13 -10 -25 7 -24 -15 -53 -31 -40 -6 5 -22 11 -36
13 -29 4 -37 29 -39 130 l-1 67 123 3 122 3 3 -47 c2 -26 2 -72 0 -103z m2130
23 c-2 -134 -5 -118 -10 45 -2 48 0 87 5 87 4 0 6 -60 5 -132z m1205 125 c-7
-2 -19 -2 -25 0 -7 3 -2 5 12 5 14 0 19 -2 13 -5z m239 0 c-6 -2 -10 -9 -6
-14 3 -5 -7 -8 -23 -8 -21 1 -23 3 -8 7 l20 5 -20 8 c-16 6 -12 8 15 8 19 -1
29 -3 22 -6z m-1682 -13 c0 -5 -2 -10 -4 -10 -3 0 -8 5 -11 10 -3 6 -1 10 4
10 6 0 11 -4 11 -10z m-2197 -7 c-7 -2 -21 -2 -30 0 -10 3 -4 5 12 5 17 0 24
-2 18 -5z m2517 -111 c0 -65 -3 -121 -6 -125 -3 -3 -12 -3 -20 0 -11 4 -14 29
-13 112 1 68 4 97 9 81 9 -27 10 -26 14 8 2 13 -3 22 -11 22 -7 0 -13 5 -13
10 0 6 9 10 20 10 19 0 20 -7 20 -118z m1130 108 c0 -5 -9 -10 -21 -10 -11 0
-17 5 -14 10 3 6 13 10 21 10 8 0 14 -4 14 -10z m473 -20 c3 -11 1 -20 -4 -20
-5 0 -9 9 -9 20 0 11 2 20 4 20 2 0 6 -9 9 -20z m27 -45 c0 -36 -4 -65 -8 -65
-4 0 -6 16 -4 35 4 33 2 35 -24 36 l-29 2 28 4 c21 3 27 10 27 29 0 13 2 24 5
24 3 0 5 -29 5 -65z m-4386 13 c10 -7 6 -9 -10 -7 -4 0 -10 -4 -13 -10 -4 -6
-8 6 -8 26 -1 32 0 34 10 18 5 -11 15 -23 21 -27z m3876 22 c0 -5 -7 -10 -16
-10 -8 0 -12 5 -9 10 3 6 10 10 16 10 5 0 9 -4 9 -10z m1517 4 c-3 -3 -12 -4
-19 -1 -8 3 -5 6 6 6 11 1 17 -2 13 -5z m-5370 -36 c-3 -8 -6 -5 -6 6 -1 11 2
17 5 13 3 -3 4 -12 1 -19z m58 3 c-3 -6 -11 -11 -16 -11 -5 0 -4 6 3 14 14 16
24 13 13 -3z m62 4 c0 -8 -4 -15 -9 -15 -5 0 -6 -4 -3 -10 3 -5 1 -10 -4 -10
-6 0 -11 5 -11 10 0 6 -5 10 -11 10 -5 0 -7 -4 -4 -10 3 -5 1 -10 -4 -10 -6 0
-11 4 -11 9 0 13 26 32 33 24 4 -3 7 -1 7 5 0 7 4 12 8 12 5 0 9 -7 9 -15z
m2390 -32 c-3 -10 -5 -4 -5 12 0 17 2 24 5 18 2 -7 2 -21 0 -30z m4840 31 c-3
-3 -12 -4 -19 -1 -8 3 -5 6 6 6 11 1 17 -2 13 -5z m-3260 -26 c-3 -8 -6 -5 -6
6 -1 11 2 17 5 13 3 -3 4 -12 1 -19z m1261 15 c-10 -2 -26 -2 -35 0 -10 3 -2
5 17 5 19 0 27 -2 18 -5z m1914 -13 c3 -3 0 -14 -8 -24 -13 -19 -14 -18 -14
14 0 18 3 29 8 24 4 -5 10 -11 14 -14z m175 14 c-3 -3 -12 -4 -19 -1 -8 3 -5
6 6 6 11 1 17 -2 13 -5z m-324 -19 c4 -8 3 -16 -1 -19 -4 -3 -9 4 -9 15 -2 23
3 25 10 4z m184 -7 c-3 -8 -6 -5 -6 6 -1 11 2 17 5 13 3 -3 4 -12 1 -19z m35
-3 c4 -17 1 -25 -8 -25 -14 0 -19 31 -7 43 9 10 10 9 15 -18z m35 10 c0 -8 -4
-15 -9 -15 -4 0 -8 7 -8 15 0 8 4 15 8 15 5 0 9 -7 9 -15z m66 -20 c2 -13 -1
-29 -7 -36 -8 -9 -8 -10 2 -5 9 5 12 -4 12 -33 0 -34 -3 -41 -20 -41 -11 0
-20 -6 -20 -12 0 -9 -4 -8 -10 2 -5 8 -10 11 -11 5 -1 -14 -18 27 -18 45 0 8
6 4 14 -10 9 -16 15 -20 15 -10 1 10 3 11 7 3 6 -16 33 -17 33 -2 0 6 -7 17
-15 25 -12 12 -15 12 -15 2 0 -9 -2 -10 -8 -2 -8 13 -28 17 -89 15 l-42 -1 0
-54 c1 -47 4 -54 20 -53 16 1 19 10 20 52 1 27 4 40 6 28 2 -13 11 -23 18 -23
7 0 15 10 17 23 3 21 4 21 9 -3 2 -14 2 -38 -2 -55 -6 -28 -7 -29 -8 -4 -1 33
-31 35 -31 2 0 -14 -5 -34 -12 -46 -11 -21 -10 -21 8 -7 18 15 18 14 1 -10
-10 -14 -20 -33 -24 -42 -4 -13 -16 -18 -45 -18 -32 0 -39 3 -34 15 3 9 -1 18
-9 22 -12 4 -13 9 -4 19 6 7 8 17 6 21 -8 13 22 75 33 68 6 -4 10 13 10 45 l0
50 33 -2 c17 -1 35 -6 38 -11 10 -14 78 14 72 30 -3 7 -3 19 0 27 9 22 44 8
50 -19z m-3370 18 c-7 -2 -21 -2 -30 0 -10 3 -4 5 12 5 17 0 24 -2 18 -5z
m1290 -13 c-4 -14 -13 -20 -32 -19 l-26 0 25 11 25 11 -30 7 -30 8 37 1 c31 1
35 -2 31 -19z m514 14 c-3 -3 -12 -4 -19 -1 -8 3 -5 6 6 6 11 1 17 -2 13 -5z
m-2017 -24 c0 -5 -7 -10 -16 -10 -8 0 -12 5 -9 10 3 6 10 10 16 10 5 0 9 -4 9
-10z m347 4 c-3 -3 -12 -4 -19 -1 -8 3 -5 6 6 6 11 1 17 -2 13 -5z m90 -31
c-3 -10 -5 -4 -5 12 0 17 2 24 5 18 2 -7 2 -21 0 -30z m-3340 21 c-3 -3 -12
-4 -19 -1 -8 3 -5 6 6 6 11 1 17 -2 13 -5z m1603 -26 c0 -4 -6 -8 -14 -8 -9 0
-12 -7 -9 -20 4 -14 0 -20 -11 -20 -12 0 -16 10 -16 40 0 39 1 39 25 28 14 -6
25 -15 25 -20z m3280 22 c0 -5 -4 -10 -10 -10 -5 0 -10 5 -10 10 0 6 5 10 10
10 6 0 10 -4 10 -10z m987 -12 c-3 -8 -6 -5 -6 6 -1 11 2 17 5 13 3 -3 4 -12
1 -19z m-964 -3 c4 -8 2 -17 -3 -20 -6 -4 -10 3 -10 14 0 25 6 27 13 6z
m-5456 -17 c-3 -8 -6 -5 -6 6 -1 11 2 17 5 13 3 -3 4 -12 1 -19z m1946 15 c-7
-2 -19 -2 -25 0 -7 3 -2 5 12 5 14 0 19 -2 13 -5z m1507 3 c0 -11 -19 -15 -25
-6 -3 5 1 10 9 10 9 0 16 -2 16 -4z m4237 -2 c-3 -3 -12 -4 -19 -1 -8 3 -5 6
6 6 11 1 17 -2 13 -5z m-3727 -14 c0 -5 -4 -10 -10 -10 -5 0 -10 5 -10 10 0 6
5 10 10 10 6 0 10 -4 10 -10z m1550 -5 c-10 -12 -6 -13 24 -8 23 3 36 2 36 -5
0 -16 -10 -20 -63 -26 -34 -4 -47 -2 -47 7 0 19 13 34 35 40 11 2 22 5 24 6 2
0 -2 -6 -9 -14z m228 -38 c12 -3 10 -5 -5 -6 -20 -1 -23 4 -22 32 2 29 2 29 6
5 2 -15 12 -29 21 -31z m-3573 10 c-4 -14 -12 -28 -19 -30 -9 -4 -8 5 3 28 18
38 25 39 16 2z m2775 23 c-8 -5 -22 -10 -30 -10 -13 0 -13 1 0 10 8 5 22 10
30 10 13 0 13 -1 0 -10z m-1340 -10 c0 -5 -5 -10 -11 -10 -5 0 -7 5 -4 10 3 6
8 10 11 10 2 0 4 -4 4 -10z m327 -87 c-2 -21 -4 -6 -4 32 0 39 2 55 4 38 2
-18 2 -50 0 -70z m3479 50 c-11 -11 -17 4 -9 23 7 18 8 18 11 1 2 -10 1 -21
-2 -24z m-3800 6 c3 -5 16 -9 30 -9 15 0 24 -6 24 -16 0 -13 -7 -15 -31 -10
-17 3 -40 6 -50 6 -13 0 -19 7 -19 24 0 19 4 23 20 19 11 -3 23 -9 26 -14z
m1321 15 c-3 -3 -12 -4 -19 -1 -8 3 -5 6 6 6 11 1 17 -2 13 -5z m-4377 -14 c0
-5 -7 -10 -16 -10 -8 0 -12 5 -9 10 3 6 10 10 16 10 5 0 9 -4 9 -10z m2970 -6
c0 -2 -9 -4 -20 -4 -11 0 -20 4 -20 9 0 5 9 7 20 4 11 -3 20 -7 20 -9z m260 6
c13 -9 13 -10 0 -10 -8 0 -22 5 -30 10 -13 9 -13 10 0 10 8 0 22 -5 30 -10z
m2190 -15 c0 -9 -6 -12 -15 -9 -8 4 -12 10 -9 15 8 14 24 10 24 -6z m-477 -2
c-7 -2 -19 -2 -25 0 -7 3 -2 5 12 5 14 0 19 -2 13 -5z m115 1 c-10 -9 -98 -12
-92 -3 3 5 26 9 51 9 26 0 44 -3 41 -6z m-2093 -14 c3 -6 -1 -7 -9 -4 -18 7
-21 14 -7 14 6 0 13 -4 16 -10z m169 -5 c-5 -11 1 -15 24 -15 17 0 32 6 36 15
6 17 36 20 36 4 0 -6 -7 -8 -15 -5 -9 3 -15 1 -14 -7 3 -27 -2 -37 -21 -37
-11 0 -20 5 -20 10 0 14 -37 12 -43 -2 -3 -7 -6 -4 -6 8 -1 11 4 25 11 32 16
16 19 15 12 -3z m-2934 -10 c0 -2 -7 -5 -15 -9 -9 -3 -15 0 -15 9 0 9 6 12 15
9 8 -4 15 -7 15 -9z m4455 -6 c-33 -3 -52 -6 -42 -7 29 -3 19 -22 -13 -22 -21
0 -28 4 -24 14 4 11 0 13 -18 9 -13 -4 -20 -2 -15 3 10 10 147 22 162 14 6 -3
-17 -8 -50 -11z m95 11 c0 -16 -40 -31 -73 -27 -31 4 -31 4 6 5 25 2 37 7 37
17 0 8 7 15 15 15 8 0 15 -4 15 -10z m1717 -12 c-3 -8 -6 -5 -6 6 -1 11 2 17
5 13 3 -3 4 -12 1 -19z m688 13 c3 -5 1 -12 -5 -16 -5 -3 -10 1 -10 9 0 18 6
21 15 7z m-7072 -104 c5 -71 4 -78 -11 -71 -14 6 -48 8 -173 13 -12 1 -18 12
-21 41 -4 46 2 50 70 50 54 0 77 11 69 33 -4 10 0 13 13 10 10 -3 21 1 25 7
14 22 23 -5 28 -83z m3151 75 c3 -5 -1 -9 -9 -9 -8 0 -12 4 -9 9 3 4 7 8 9 8
2 0 6 -4 9 -8z m1176 4 c0 -3 -4 -8 -10 -11 -5 -3 -10 -1 -10 4 0 6 5 11 10
11 6 0 10 -2 10 -4z m148 -11 c3 -3 -22 -5 -56 -5 -34 0 -62 4 -62 9 0 10 109
5 118 -4z m682 -16 c0 -15 -7 -19 -32 -19 -25 0 -29 3 -18 10 13 8 12 10 -2
10 -26 0 -22 18 5 22 32 6 47 -2 47 -23z m1434 16 c3 -8 1 -15 -4 -15 -6 0
-10 7 -10 15 0 8 2 15 4 15 2 0 6 -7 10 -15z m289 8 c-7 -2 -19 -2 -25 0 -7 3
-2 5 12 5 14 0 19 -2 13 -5z m150 0 c-7 -2 -19 -2 -25 0 -7 3 -2 5 12 5 14 0
19 -2 13 -5z m-6885 -30 c-2 -21 2 -28 17 -30 l20 -3 -20 9 c-15 7 -8 10 31
10 l51 1 7 -40 c6 -38 8 -40 40 -40 53 0 69 -9 54 -28 -10 -12 -10 -14 0 -8 6
4 12 3 12 -3 0 -6 8 -8 18 -5 16 5 16 5 -1 -6 -9 -6 -15 -16 -11 -21 3 -6 -9
-9 -30 -7 -20 1 -36 7 -36 13 0 5 -5 2 -11 -9 -7 -10 -14 -14 -18 -9 -3 6 -49
13 -101 17 -52 4 -97 9 -100 13 -3 3 25 3 62 1 66 -4 66 -4 70 23 4 24 0 28
-30 34 -22 4 -36 13 -39 26 -6 22 -8 23 -34 8 -18 -9 -19 -8 -10 9 7 13 7 22
-1 30 -9 9 -4 12 20 12 22 0 32 5 32 15 0 8 3 15 6 15 3 0 4 -12 2 -27z m4926
15 c-5 -8 -70 -5 -79 4 -3 3 15 5 39 4 25 0 42 -4 40 -8z m261 2 c3 -5 -1 -10
-9 -10 -9 0 -16 5 -16 10 0 6 4 10 9 10 6 0 13 -4 16 -10z m1011 -17 c-10 -10
-19 5 -10 18 6 11 8 11 12 0 2 -7 1 -15 -2 -18z m1411 5 c-3 -8 -6 -5 -6 6 -1
11 2 17 5 13 3 -3 4 -12 1 -19z m267 12 c11 0 16 -3 13 -6 -12 -13 -101 -7
-105 6 -4 10 5 11 34 7 22 -4 48 -7 58 -7z m-6477 -6 c-3 -3 -12 -4 -19 -1 -8
3 -5 6 6 6 11 1 17 -2 13 -5z m1353 -3 c0 -5 7 -12 16 -15 8 -3 12 -2 9 4 -3
6 1 10 9 10 17 0 20 -9 8 -25 -9 -14 -52 -17 -52 -5 0 5 -8 7 -17 4 -14 -4
-14 -3 2 7 19 12 19 12 0 20 -19 7 -18 8 3 8 12 1 22 -3 22 -8z m317 -13 c-3
-8 -6 -5 -6 6 -1 11 2 17 5 13 3 -3 4 -12 1 -19z m-1630 -5 c3 -9 -8 -10 -35
-4 -2 1 0 6 3 12 8 12 27 7 32 -8z m1476 10 c-13 -2 -33 -2 -45 0 -13 2 -3 4
22 4 25 0 35 -2 23 -4z m1472 -3 c-3 -5 -1 -10 4 -10 6 0 11 -4 11 -10 0 -5
-13 -10 -30 -10 -16 0 -30 3 -30 8 0 6 24 21 48 31 2 0 0 -3 -3 -9z m852 4
c-3 -3 -12 -4 -19 -1 -8 3 -5 6 6 6 11 1 17 -2 13 -5z m643 -7 c0 -5 8 -6 18
-2 13 5 14 3 6 -5 -8 -8 -18 -9 -31 -2 -17 9 -19 7 -21 -26 -3 -45 -12 -56
-13 -16 0 16 -2 37 -4 46 -2 13 3 17 21 16 13 -1 24 -6 24 -11z m2080 4 c0 -4
-11 -6 -25 -3 -14 2 -25 6 -25 8 0 2 11 4 25 4 14 0 25 -4 25 -9z m-6613 -33
c-3 -7 -5 -2 -5 12 0 14 2 19 5 13 2 -7 2 -19 0 -25z m26 12 c-3 -12 -8 -19
-11 -16 -5 6 5 36 12 36 2 0 2 -9 -1 -20z m1714 -2 c-3 -8 -6 -5 -6 6 -1 11 2
17 5 13 3 -3 4 -12 1 -19z m60 -15 c-3 -10 -5 -4 -5 12 0 17 2 24 5 18 2 -7 2
-21 0 -30z m1718 27 c3 -5 1 -10 -4 -10 -6 0 -11 5 -11 10 0 6 2 10 4 10 3 0
8 -4 11 -10z m270 1 c3 -5 1 -12 -5 -16 -5 -3 -10 1 -10 9 0 18 6 21 15 7z
m-4565 -8 c-8 -3 -18 -11 -22 -17 -5 -7 -8 -4 -8 7 0 11 7 17 23 16 15 0 17
-2 7 -6z m138 0 c-10 -2 -26 -2 -35 0 -10 3 -2 5 17 5 19 0 27 -2 18 -5z
m1385 0 c-13 -2 -35 -2 -50 0 -16 2 -5 4 22 4 28 0 40 -2 28 -4z m54 1 c-3 -3
-12 -4 -19 -1 -8 3 -5 6 6 6 11 1 17 -2 13 -5z m3360 0 c-3 -3 -12 -4 -19 -1
-8 3 -5 6 6 6 11 1 17 -2 13 -5z m426 -19 c-7 -21 -13 -19 -13 6 0 11 4 18 10
14 5 -3 7 -12 3 -20z m-5115 9 c21 -6 22 -11 22 -115 l0 -108 -35 3 c-37 3
-42 -3 -23 -22 9 -9 8 -12 -8 -13 -18 0 -18 -1 1 -9 17 -7 15 -9 -12 -9 -26
-1 -34 -6 -39 -27 -4 -14 -9 -22 -13 -16 -3 5 -13 12 -21 15 -12 4 -11 6 3 6
25 1 21 21 -5 22 -13 1 -5 5 17 9 l40 7 -35 9 -35 8 30 6 c17 4 36 2 43 -3 8
-7 12 -4 12 8 0 15 -6 17 -40 12 -30 -4 -40 -2 -40 9 0 9 -12 15 -32 15 -31 2
-31 2 7 8 28 4 41 2 43 -6 4 -15 52 -18 52 -3 0 6 -10 10 -22 11 -22 1 -22 1
2 9 23 7 22 8 -11 9 -33 1 -36 3 -34 29 3 48 5 53 14 48 4 -3 6 -17 3 -31 -4
-22 -1 -25 24 -24 25 0 26 1 9 9 -17 7 -17 9 -2 9 9 1 17 6 17 11 0 6 -8 10
-17 10 -16 1 -16 2 1 15 19 14 17 15 -18 15 -22 0 -35 4 -31 10 3 6 -2 10 -12
10 -16 1 -17 1 -1 10 21 13 56 1 36 -11 -9 -6 -3 -9 17 -9 23 0 27 3 15 10
-13 9 -13 10 0 10 13 0 13 2 1 9 -12 8 -12 12 -2 25 14 17 40 20 79 10z m2249
-61 c-2 -16 -4 -5 -4 22 0 28 2 40 4 28 2 -13 2 -35 0 -50z m1933 48 c0 -11
-4 -23 -10 -26 -17 -11 -11 -28 8 -20 16 7 72 8 79 1 2 -2 0 -22 -5 -44 -9
-40 -9 -41 16 -39 25 2 45 27 22 27 -6 0 -8 -4 -5 -10 3 -5 1 -10 -4 -10 -19
0 -12 28 9 33 14 4 20 0 20 -11 0 -15 2 -15 11 -2 9 12 10 12 5 -3 -3 -10 -6
-24 -6 -31 0 -8 -16 -12 -45 -12 -38 1 -45 4 -42 18 3 10 -3 18 -14 21 -24 6
-35 4 -31 -5 1 -5 -2 -8 -7 -8 -14 0 -20 38 -7 44 6 2 -4 5 -21 5 -26 1 -33 5
-33 21 0 13 -7 19 -22 18 -50 -2 -78 3 -78 13 0 5 12 9 28 8 62 -5 92 1 86 16
-5 11 1 15 20 15 19 0 26 -5 26 -19z m203 12 c-7 -2 -19 -2 -25 0 -7 3 -2 5
12 5 14 0 19 -2 13 -5z m567 -9 c0 -8 -5 -12 -11 -8 -6 3 -15 0 -20 -7 -7 -11
-9 -11 -9 3 0 9 8 19 18 21 9 3 18 5 20 6 1 0 2 -6 2 -15z m787 10 c-3 -3 -12
-4 -19 -1 -8 3 -5 6 6 6 11 1 17 -2 13 -5z m-5847 -14 c12 -8 11 -10 -7 -10
-13 0 -23 5 -23 10 0 13 11 13 30 0z m2302 -77 c2 -49 2 -90 1 -92 -1 -2 -9 2
-18 9 -12 10 -15 10 -15 -3 0 -8 -5 -17 -11 -19 -6 -2 -11 -20 -12 -41 -1 -37
-10 -47 -23 -26 -4 8 -9 7 -15 -2 -7 -11 -9 -9 -9 6 -1 17 -2 18 -13 5 -9 -11
-35 -16 -92 -17 -44 -1 -74 0 -66 4 11 5 11 7 0 14 -9 6 -2 9 21 8 29 0 31 -2
15 -9 -19 -8 -19 -9 3 -9 12 -1 22 1 22 3 0 2 3 11 6 20 5 13 -4 16 -57 17
-35 1 -50 4 -34 6 70 8 95 14 95 23 0 6 -12 11 -27 11 -16 1 4 7 42 13 39 7
75 9 81 4 5 -4 20 -5 32 -1 20 5 22 11 22 84 0 77 1 79 24 79 24 0 25 -2 28
-87z m3828 71 c0 -2 -11 -4 -25 -4 -14 0 -25 4 -25 9 0 4 11 6 25 3 14 -2 25
-6 25 -8z m-5640 -4 c0 -5 -4 -10 -10 -10 -5 0 -10 5 -10 10 0 6 5 10 10 10 6
0 10 -4 10 -10z m1565 0 c3 -5 1 -10 -4 -10 -6 0 -11 5 -11 10 0 6 2 10 4 10
3 0 8 -4 11 -10z m3455 0 c0 -5 -5 -10 -11 -10 -5 0 -7 5 -4 10 3 6 8 10 11
10 2 0 4 -4 4 -10z m507 4 c-3 -3 -12 -4 -19 -1 -8 3 -5 6 6 6 11 1 17 -2 13
-5z m-5570 -10 c-3 -3 -12 -4 -19 -1 -8 3 -5 6 6 6 11 1 17 -2 13 -5z m1536
-1 c-7 -2 -21 -2 -30 0 -10 3 -4 5 12 5 17 0 24 -2 18 -5z m194 1 c-3 -3 -12
-4 -19 -1 -8 3 -5 6 6 6 11 1 17 -2 13 -5z m2461 -5 c24 0 25 -1 7 -8 -42 -17
-85 -21 -82 -8 3 17 20 28 35 22 8 -3 26 -5 40 -6z m1118 -7 c-21 -2 -42 0
-47 5 -4 4 13 6 39 3 l47 -5 -39 -3z m-3293 1 c-7 -2 -19 -2 -25 0 -7 3 -2 5
12 5 14 0 19 -2 13 -5z m2290 -8 c3 -5 -10 -10 -28 -10 -22 0 -30 4 -25 10 5
6 18 11 29 11 11 0 22 -5 24 -11z m1380 8 c-7 -2 -19 -2 -25 0 -7 3 -2 5 12 5
14 0 19 -2 13 -5z m-5643 -13 c0 -5 -5 -10 -11 -10 -5 0 -7 5 -4 10 3 6 8 10
11 10 2 0 4 -4 4 -10z m207 -12 c-3 -8 -6 -5 -6 6 -1 11 2 17 5 13 3 -3 4 -12
1 -19z m1760 6 c-3 -3 -12 -4 -19 -1 -8 3 -5 6 6 6 11 1 17 -2 13 -5z m2483 2
c0 -8 -51 -13 -56 -5 -3 5 9 9 25 9 17 0 31 -2 31 -4z m515 -27 c-6 -25 -4
-30 10 -27 24 4 28 -29 5 -35 -13 -3 -17 0 -13 9 3 10 -3 14 -20 14 -30 0 -31
-23 -1 -45 19 -14 18 -14 -3 -15 -13 0 -23 5 -23 10 0 6 -4 10 -10 10 -5 0
-10 -11 -10 -25 0 -22 3 -25 28 -19 18 4 23 3 14 -4 -8 -5 -13 -13 -12 -18 2
-15 -42 -17 -52 -2 -7 10 -11 10 -15 1 -7 -18 -30 -16 -36 1 -4 10 -1 13 8 10
18 -7 38 31 30 56 -4 12 -2 20 5 20 8 0 9 7 5 18 -15 39 -15 62 0 62 8 0 15
-4 15 -10 0 -5 12 -10 28 -9 l27 1 -25 8 c-24 7 -23 7 10 12 19 3 36 6 38 6 2
1 1 -12 -3 -29z m-115 17 c0 -3 -4 -8 -10 -11 -5 -3 -10 -1 -10 4 0 6 5 11 10
11 6 0 10 -2 10 -4z m-4840 -16 c0 -5 -4 -10 -10 -10 -5 0 -10 5 -10 10 0 6 5
10 10 10 6 0 10 -4 10 -10z m4777 4 c-3 -3 -12 -4 -19 -1 -8 3 -5 6 6 6 11 1
17 -2 13 -5z m-2717 -14 c0 -5 -5 -10 -11 -10 -5 0 -7 5 -4 10 3 6 8 10 11 10
2 0 4 -4 4 -10z m-203 -32 c-3 -7 -5 -2 -5 12 0 14 2 19 5 13 2 -7 2 -19 0
-25z m-2680 -25 c-3 -10 -5 -2 -5 17 0 19 2 27 5 18 2 -10 2 -26 0 -35z m4860
22 c-4 -8 -11 -15 -17 -15 -6 0 -6 7 2 20 14 22 24 19 15 -5z m623 -17 c0 -4
-7 -5 -15 -2 -8 4 -15 16 -15 27 0 20 0 20 15 1 8 -10 15 -22 15 -26z m-246
17 c6 -17 -30 -20 -99 -8 l-40 8 40 6 c70 11 93 10 99 -6z m1396 -5 c0 -5 -2
-10 -4 -10 -3 0 -8 5 -11 10 -3 6 -1 10 4 10 6 0 11 -4 11 -10z m-8260 -10 c0
-5 -4 -10 -10 -10 -5 0 -10 5 -10 10 0 6 5 10 10 10 6 0 10 -4 10 -10z m1187
-4 c-3 -7 0 -19 6 -25 6 -6 8 -14 4 -17 -9 -9 -37 21 -37 40 0 9 7 16 16 16
10 0 14 -6 11 -14z m6973 -16 c12 -16 19 -30 16 -30 -11 0 32 -81 50 -95 17
-13 11 -14 -58 -15 -42 0 -83 -3 -92 -6 -13 -5 -16 2 -16 34 0 23 5 44 10 47
6 4 8 11 5 16 -4 5 5 14 19 21 17 7 26 19 26 35 0 31 14 29 40 -7z m-8113 14
c-3 -3 -12 -4 -19 -1 -8 3 -5 6 6 6 11 1 17 -2 13 -5z m6226 -14 c-3 -11 -9
-20 -13 -20 -5 0 -6 9 -3 20 3 11 9 20 13 20 5 0 6 -9 3 -20z m124 -2 c-3 -8
-6 -5 -6 6 -1 11 2 17 5 13 3 -3 4 -12 1 -19z m1410 16 c-3 -3 -12 -4 -19 -1
-8 3 -5 6 6 6 11 1 17 -2 13 -5z m-6351 -99 c-7 -26 -48 -38 -80 -25 -22 9 -8
14 28 10 11 -1 15 3 12 9 -4 6 -18 11 -31 11 -19 0 -22 4 -18 21 5 17 12 20
44 17 22 -2 39 0 39 4 0 5 -15 8 -34 8 -19 0 -36 6 -39 13 -4 10 4 14 29 12
19 -1 38 3 42 9 9 14 15 -60 8 -89z m2955 78 c0 -15 2 -15 7 -3 4 9 13 15 20
14 6 -1 19 -2 27 -3 8 0 12 -7 9 -15 -8 -20 26 -65 49 -66 14 0 17 -10 17 -58
l0 -58 -57 1 c-32 0 -65 -3 -75 -7 -13 -6 -15 -3 -11 12 5 19 0 20 -113 21
-66 0 -137 4 -159 8 -28 6 6 9 117 10 150 1 157 2 155 21 -1 22 -5 23 -91 21
-71 -2 -96 5 -96 26 0 12 3 13 14 4 10 -8 16 -9 21 -1 3 5 15 10 26 10 15 0
19 7 19 31 l0 30 55 -5 c30 -4 55 -3 55 2 0 4 -14 9 -32 10 -48 4 -47 12 0 12
33 0 42 -4 43 -17z m2816 11 c-3 -3 -12 -4 -19 -1 -8 3 -5 6 6 6 11 1 17 -2
13 -5z m-4560 -10 c-3 -3 -12 -4 -19 -1 -8 3 -5 6 6 6 11 1 17 -2 13 -5z
m-1339 -19 c3 -3 -9 -5 -27 -5 -18 0 -30 4 -26 9 5 10 43 7 53 -4z m5402 7 c0
-10 -38 -13 -44 -3 -3 3 6 8 20 9 13 1 24 -2 24 -6z m776 -18 c-4 -9 -9 -15
-11 -12 -3 3 -3 13 1 22 4 9 9 15 11 12 3 -3 3 -13 -1 -22z m-4908 9 c-10 -2
-26 -2 -35 0 -10 3 -2 5 17 5 19 0 27 -2 18 -5z m2007 -3 c3 -5 2 -10 -4 -10
-5 0 -13 5 -16 10 -3 6 -2 10 4 10 5 0 13 -4 16 -10z m1988 -21 c-5 -25 -7
-26 -34 -16 -33 13 -33 32 -2 32 12 0 25 3 29 8 11 11 13 5 7 -24z m-2698 11
c3 -5 1 -10 -4 -10 -6 0 -11 5 -11 10 0 6 2 10 4 10 3 0 8 -4 11 -10z m3055
-2 c0 -10 -9 -9 -35 2 -17 8 -16 8 8 7 15 -1 27 -5 27 -9z m-5763 -4 c-3 -3
-12 -4 -19 -1 -8 3 -5 6 6 6 11 1 17 -2 13 -5z m955 -24 c-20 -25 -19 -25 -33
3 -11 20 -11 21 4 8 14 -11 18 -11 23 3 3 9 10 14 15 11 4 -3 1 -15 -9 -25z
m468 10 c0 -5 -11 -10 -25 -10 -14 0 -25 5 -25 10 0 6 11 10 25 10 14 0 25 -4
25 -10z m4303 3 c-7 -2 -21 -2 -30 0 -10 3 -4 5 12 5 17 0 24 -2 18 -5z m240
-8 c-3 -9 -8 -14 -10 -11 -3 3 -2 9 2 15 9 16 15 13 8 -4z m-1348 -15 c3 -5
-3 -10 -14 -10 -12 0 -21 -4 -21 -10 0 -11 -32 -1 -43 14 -5 6 -6 2 -2 -10 3
-14 0 -24 -8 -27 -10 -4 -12 3 -9 24 4 27 7 29 48 29 23 0 46 -4 49 -10z
m1710 0 c3 -5 1 -10 -4 -10 -6 0 -11 5 -11 10 0 6 2 10 4 10 3 0 8 -4 11 -10z
m-6272 -7 c-7 -2 -19 -2 -25 0 -7 3 -2 5 12 5 14 0 19 -2 13 -5z m2343 -39
l11 -46 -34 5 c-28 5 -34 3 -29 -9 3 -9 1 -12 -4 -9 -6 3 -10 13 -10 22 0 9
-3 13 -6 10 -4 -4 -14 8 -23 26 -19 37 -11 45 49 46 34 1 36 -1 46 -45z m332
31 c3 -3 -11 -5 -31 -5 -20 0 -37 4 -37 9 0 10 58 6 68 -4z m1592 5 c0 -5 -7
-10 -15 -10 -8 0 -15 5 -15 10 0 6 7 10 15 10 8 0 15 -4 15 -10z m-3330 -11
c0 -4 -6 -10 -12 -13 -9 -3 -7 -9 7 -21 24 -19 40 -14 39 13 0 17 2 19 12 11
11 -9 10 -15 -3 -35 -9 -15 -11 -24 -4 -24 6 0 11 7 11 15 0 8 7 15 16 15 8 0
12 5 9 10 -3 6 -1 10 4 10 19 0 12 -38 -8 -45 -10 -3 -29 -15 -42 -26 -19 -17
-34 -20 -72 -16 -26 2 -49 6 -51 8 -10 9 -18 60 -10 58 5 -1 24 -1 42 0 27 1
32 5 32 24 0 14 6 24 15 24 8 0 15 -4 15 -8z m2456 -14 c1 -8 -4 -15 -12 -15
-8 0 -14 -7 -14 -16 0 -9 8 -14 18 -13 39 4 125 -1 119 -8 -4 -3 -41 -5 -82
-4 -41 1 -75 0 -75 -3 0 -15 13 -35 21 -30 5 3 17 0 26 -5 14 -8 9 -10 -27
-11 -33 0 -41 3 -30 10 10 6 11 10 3 10 -9 0 -13 17 -13 49 0 47 2 50 28 53
32 4 35 2 38 -17z m-1976 5 c-20 -13 -33 -13 -25 0 3 6 14 10 23 10 15 0 15
-2 2 -10z m-2002 -43 c2 -21 7 -35 13 -32 5 4 9 1 9 -4 0 -6 -11 -11 -24 -11
-19 0 -23 4 -19 20 3 11 1 20 -4 20 -5 0 -17 6 -27 13 -16 12 -16 14 -2 14 9
0 16 -4 16 -9 0 -4 7 -8 15 -8 13 0 14 4 4 21 -9 17 -8 20 3 17 7 -3 14 -21
16 -41z m1932 32 c0 -8 4 -8 14 0 12 10 13 8 9 -9 -5 -20 -7 -20 -24 -4 -12
11 -19 13 -19 5 0 -7 -4 -9 -10 -6 -9 6 -14 -8 -11 -27 0 -5 -3 -8 -9 -8 -5 0
-10 9 -10 20 0 11 -6 20 -12 21 -16 1 31 17 55 18 9 1 17 -4 17 -10z m-283 -5
c-3 -3 -12 -4 -19 -1 -8 3 -5 6 6 6 11 1 17 -2 13 -5z m3543 -20 c0 -2 -15 -4
-32 -4 -23 0 -29 3 -19 9 12 8 51 4 51 -5z m427 10 c-3 -3 -12 -4 -19 -1 -8 3
-5 6 6 6 11 1 17 -2 13 -5z m778 -32 c0 -21 5 -26 30 -27 45 -2 55 -12 55 -56
0 -28 -4 -39 -15 -39 -8 0 -15 7 -15 15 0 11 -11 15 -39 15 -50 0 -71 8 -71
27 0 9 -8 22 -17 30 -17 13 -16 14 4 10 13 -3 26 -1 29 4 3 5 0 9 -5 9 -6 0
-11 8 -11 17 0 9 3 14 6 10 4 -3 13 1 21 9 19 18 28 10 28 -24z m-6360 18 c-3
-5 -10 -10 -16 -10 -5 0 -9 5 -9 10 0 6 7 10 16 10 8 0 12 -4 9 -10z m3348 3
c-13 -2 -33 -2 -45 0 -13 2 -3 4 22 4 25 0 35 -2 23 -4z m759 -16 c-4 -21 16
-23 24 -2 4 8 10 15 15 15 4 0 5 -8 2 -17 -5 -12 -2 -15 10 -10 13 5 17 0 17
-22 0 -18 -5 -28 -15 -28 -8 0 -15 4 -15 9 0 5 -9 4 -19 -2 -37 -19 -104 -5
-71 15 5 3 10 16 10 29 0 12 3 26 7 30 13 12 38 1 35 -17z m2774 -2 c-3 -8 2
-19 12 -24 9 -6 13 -10 7 -11 -20 0 -35 17 -29 33 3 9 8 17 11 17 3 0 3 -7 -1
-15z m-3933 -2 c-7 -2 -19 -2 -25 0 -7 3 -2 5 12 5 14 0 19 -2 13 -5z m4713
-5 c4 -7 4 -10 -1 -6 -4 4 -14 3 -22 -3 -8 -8 -13 -8 -13 -1 0 6 6 13 13 15 6
3 13 6 14 6 1 1 5 -5 9 -11z m-4989 -23 c-15 -16 -19 -13 -11 9 3 9 10 13 15
10 5 -3 3 -11 -4 -19z m571 18 c-10 -2 -26 -2 -35 0 -10 3 -2 5 17 5 19 0 27
-2 18 -5z m109 1 c-3 -3 -12 -4 -19 -1 -8 3 -5 6 6 6 11 1 17 -2 13 -5z m2347
-10 c22 -22 20 -25 -10 -14 -14 6 -30 8 -34 5 -5 -3 -22 -2 -37 2 -27 7 -27 8
12 14 22 3 43 7 47 8 4 0 14 -6 22 -15z m1283 10 c-3 -3 -12 -4 -19 -1 -8 3
-5 6 6 6 11 1 17 -2 13 -5z m-4190 -10 c-3 -3 -12 -4 -19 -1 -8 3 -5 6 6 6 11
1 17 -2 13 -5z m2443 2 c0 -11 -19 -15 -25 -6 -3 5 1 10 9 10 9 0 16 -2 16 -4z
m237 -18 c-3 -8 -6 -5 -6 6 -1 11 2 17 5 13 3 -3 4 -12 1 -19z m-2351 -24 c5
-26 3 -39 -7 -45 -22 -14 -29 -11 -29 11 0 15 -7 20 -27 20 -22 0 -25 2 -13
10 10 6 11 10 3 10 -7 0 -13 4 -13 9 0 8 17 13 67 20 7 0 15 -15 19 -35z m247
29 c-7 -2 -19 -2 -25 0 -7 3 -2 5 12 5 14 0 19 -2 13 -5z m2190 0 c-7 -2 -19
-2 -25 0 -7 3 -2 5 12 5 14 0 19 -2 13 -5z m670 0 c-7 -2 -13 -13 -13 -24 0
-20 15 -26 25 -9 9 14 38 13 33 -1 -5 -15 -68 -22 -68 -8 0 5 -4 7 -10 4 -5
-3 -10 -1 -10 4 0 6 5 11 10 11 6 0 10 7 10 15 0 8 8 15 18 14 10 0 12 -3 5
-6z m722 -3 c11 -5 14 -9 7 -9 -7 -1 -10 -6 -7 -12 4 -6 14 -8 24 -4 12 5 13
3 5 -5 -9 -9 -18 -8 -38 5 -40 27 -34 44 9 25z m-5780 -10 c3 -5 -1 -10 -9
-10 -9 0 -16 5 -16 10 0 6 4 10 9 10 6 0 13 -4 16 -10z m621 -5 c10 -8 17 -15
14 -16 -44 -10 -60 -8 -60 6 0 8 -4 15 -10 15 -5 0 -8 -6 -6 -12 1 -7 1 -10
-1 -5 -3 4 -13 7 -23 7 -10 0 -22 5 -25 10 -10 16 89 12 111 -5z m1657 8 c-13
-2 -33 -2 -45 0 -13 2 -3 4 22 4 25 0 35 -2 23 -4z m167 -9 c0 -2 -24 -4 -52
-4 -29 0 -48 4 -41 8 12 7 93 4 93 -4z m2533 1 c-3 -9 -8 -14 -10 -11 -3 3 -2
9 2 15 9 16 15 13 8 -4z m-3390 -2 c-7 -2 -19 -2 -25 0 -7 3 -2 5 12 5 14 0
19 -2 13 -5z m1270 0 c-7 -2 -19 -2 -25 0 -7 3 -2 5 12 5 14 0 19 -2 13 -5z
m395 0 c-21 -2 -57 -2 -80 0 -24 2 -7 4 37 4 44 0 63 -2 43 -4z m3112 -9 c31
-7 24 -9 -55 -20 -84 -11 -91 -11 -107 6 -17 18 -16 19 20 22 45 5 95 2 142
-8z m124 10 c29 -11 17 -24 -23 -24 -22 0 -43 5 -47 12 -4 6 -3 8 4 4 6 -3 13
-2 17 4 7 11 26 13 49 4z m-7478 -13 c-5 -8 -56 -3 -56 5 0 2 14 4 31 4 16 0
28 -4 25 -9z m2839 -11 c-6 -10 -55 -10 -55 0 0 5 6 10 13 13 17 5 48 -4 42
-13z m1695 10 c0 -5 -4 -10 -10 -10 -5 0 -10 5 -10 10 0 6 5 10 10 10 6 0 10
-4 10 -10z m2364 -14 c-10 -8 -23 -12 -27 -9 -5 3 2 11 15 17 29 16 38 10 12
-8z m-7079 4 c-3 -5 -14 -10 -23 -9 -14 0 -13 2 3 9 27 11 27 11 20 0z m1178
3 c-7 -2 -21 -2 -30 0 -10 3 -4 5 12 5 17 0 24 -2 18 -5z m1707 -14 c12 -7 11
-8 -5 -8 -11 0 -29 7 -40 15 -19 16 -19 16 5 9 14 -4 32 -11 40 -16z m1734 9
c-3 -4 -9 -8 -15 -8 -5 0 -9 4 -9 8 0 5 7 9 15 9 8 0 12 -4 9 -9z m191 0 c4 4
2 -3 -4 -15 -15 -29 -18 -29 -23 2 -4 19 -2 23 7 15 6 -5 15 -6 20 -2z m2520
4 c-2 -3 0 -13 6 -24 5 -10 7 -24 2 -31 -5 -8 -9 -4 -13 12 -5 23 -40 40 -40
20 0 -5 -4 -9 -9 -9 -5 0 -7 9 -4 20 4 15 13 20 34 18 15 -1 26 -4 24 -6z
m-2770 -12 c3 -6 -1 -7 -9 -4 -18 7 -21 14 -7 14 6 0 13 -4 16 -10z m184 -5
c-13 -13 -79 -15 -79 -3 0 6 11 7 25 4 14 -4 25 -2 25 3 0 5 9 9 20 8 14 -1
17 -4 9 -12z m2631 -11 c0 -8 -4 -14 -10 -14 -5 0 -10 9 -10 21 0 11 5 17 10
14 6 -3 10 -13 10 -21z m-5600 0 c0 -2 -9 -4 -21 -4 -11 0 -18 4 -14 10 5 8
35 3 35 -6z m2760 1 c18 -11 0 -26 -19 -15 -10 5 -20 7 -23 5 -3 -3 -5 1 -5 9
0 14 26 14 47 1z m1120 -5 c0 -4 -6 -10 -14 -13 -17 -7 -56 2 -56 13 0 5 8 6
19 3 10 -3 22 0 26 6 7 12 25 6 25 -9z m-1213 3 c-20 -2 -52 -2 -70 0 -17 2 0
4 38 4 39 0 53 -2 32 -4z m203 3 c0 -2 -7 -7 -16 -10 -8 -3 -12 -2 -9 4 6 10
25 14 25 6z m1893 -21 c-3 -8 -10 -15 -15 -15 -7 0 -6 5 1 13 6 8 7 18 3 22
-4 5 -2 5 5 1 7 -4 10 -13 6 -21z m617 15 c0 -5 -10 -10 -22 -10 -19 0 -20 2
-8 10 19 13 30 13 30 0z m370 6 c0 -8 -71 -12 -76 -4 -3 4 13 8 35 8 23 0 41
-2 41 -4z m-7350 -31 c0 -18 -5 -25 -19 -25 -11 0 -26 -8 -33 -18 -10 -15 -26
-18 -80 -18 -38 1 -68 -2 -68 -5 0 -4 -7 -9 -15 -13 -12 -4 -15 5 -15 49 l0
55 115 0 115 0 0 -25z m4673 18 c-7 -2 -19 -2 -25 0 -7 3 -2 5 12 5 14 0 19
-2 13 -5z m71 -1 c2 -4 -4 -8 -14 -8 -10 0 -16 4 -14 8 3 4 9 8 14 8 5 0 11
-4 14 -8z m66 0 c0 -5 -7 -9 -15 -9 -8 0 -15 4 -15 9 0 4 7 8 15 8 8 0 15 -4
15 -8z m170 -2 c0 -5 -7 -10 -16 -10 -8 0 -12 5 -9 10 3 6 10 10 16 10 5 0 9
-4 9 -10z m1350 -8 c0 -12 -3 -12 -15 -2 -8 7 -15 13 -15 15 0 1 7 2 15 2 8 0
15 -7 15 -15z m-6313 -14 c-3 -8 -6 -5 -6 6 -1 11 2 17 5 13 3 -3 4 -12 1 -19z
m3133 12 c0 -5 -2 -10 -4 -10 -3 0 -8 5 -11 10 -3 6 -1 10 4 10 6 0 11 -4 11
-10z m740 6 c0 -3 -4 -8 -10 -11 -5 -3 -10 -1 -10 4 0 6 5 11 10 11 6 0 10 -2
10 -4z m-2847 -13 c-7 -2 -19 -2 -25 0 -7 3 -2 5 12 5 14 0 19 -2 13 -5z
m6332 -3 c-3 -5 -12 -7 -20 -3 -21 7 -19 13 6 13 11 0 18 -4 14 -10z m-3355
-21 c-7 -11 -14 -18 -17 -15 -8 8 5 36 17 36 7 0 7 -6 0 -21z m50 -3 c0 -3 -4
-8 -10 -11 -5 -3 -10 -1 -10 4 0 6 5 11 10 11 6 0 10 -2 10 -4z m700 -6 c12
-8 11 -10 -7 -10 -12 0 -25 5 -28 10 -8 13 15 13 35 0z m-4736 -22 c-3 -4 -9
-8 -15 -8 -5 0 -9 4 -9 8 0 5 7 9 15 9 8 0 12 -4 9 -9z m4713 -4 c-3 -3 -12
-4 -19 -1 -8 3 -5 6 6 6 11 1 17 -2 13 -5z m-2127 -8 c0 -2 -8 -10 -17 -17
-16 -13 -17 -12 -4 4 13 16 21 21 21 13z m1397 -18 c-3 -8 -6 -5 -6 6 -1 11 2
17 5 13 3 -3 4 -12 1 -19z m786 15 c-7 -2 -19 -2 -25 0 -7 3 -2 5 12 5 14 0
19 -2 13 -5z m-4748 -13 c3 -5 -1 -10 -9 -10 -9 0 -16 5 -16 10 0 6 4 10 9 10
6 0 13 -4 16 -10z m2599 -5 c-4 -8 -10 -12 -15 -9 -14 8 -10 24 6 24 9 0 12
-6 9 -15z m1399 -10 c-7 -21 -12 -19 -10 4 0 11 5 18 9 15 4 -3 5 -11 1 -19z
m562 15 c3 -5 -1 -10 -10 -10 -9 0 -13 5 -10 10 3 6 8 10 10 10 2 0 7 -4 10
-10z m-4752 -17 c-13 -2 -35 -2 -50 0 -16 2 -5 4 22 4 28 0 40 -2 28 -4z m64
1 c-3 -3 -12 -4 -19 -1 -8 3 -5 6 6 6 11 1 17 -2 13 -5z m4089 -16 c4 -6 3 -8
-4 -4 -6 3 -13 -2 -15 -11 -4 -14 -5 -13 -6 5 -1 23 13 30 25 10z m841 -4 c6
-18 -27 -25 -43 -10 -8 8 -14 17 -14 21 0 11 53 1 57 -11z m-70 -10 c-3 -3
-12 -4 -19 -1 -8 3 -5 6 6 6 11 1 17 -2 13 -5z m1183 -8 c0 -3 -4 -8 -10 -11
-5 -3 -10 -1 -10 4 0 6 5 11 10 11 6 0 10 -2 10 -4z m-1794 -21 c-1 -8 -6 -18
-10 -22 -4 -4 -6 -2 -4 6 2 8 -8 17 -22 22 -24 7 -23 7 7 8 22 1 31 -3 29 -14z
m494 6 c0 -11 -31 -24 -38 -16 -3 3 1 5 9 6 8 0 6 4 -6 9 -18 8 -17 9 8 9 15
1 27 -3 27 -8z m-435 -11 c3 -5 2 -10 -4 -10 -5 0 -13 5 -16 10 -3 6 -2 10 4
10 5 0 13 -4 16 -10z m-3400 -10 c3 -5 1 -10 -4 -10 -6 0 -11 5 -11 10 0 6 2
10 4 10 3 0 8 -4 11 -10z m3122 -6 c-3 -3 -12 -4 -19 -1 -8 3 -5 6 6 6 11 1
17 -2 13 -5z m247 -11 c-13 -27 -9 -136 5 -141 38 -13 165 -108 192 -144 44
-61 78 -135 85 -191 4 -30 14 -53 26 -61 14 -10 17 -20 13 -39 -4 -14 -2 -28
3 -31 13 -8 310 -36 380 -36 43 0 53 3 49 14 -4 10 -1 13 8 9 8 -3 12 -9 9
-14 -3 -5 0 -9 5 -9 6 0 11 7 11 16 0 8 5 12 10 9 6 -3 10 -1 10 4 0 6 7 11
15 11 9 0 15 -9 15 -21 0 -18 4 -21 30 -16 16 4 32 2 35 -4 4 -5 15 -7 24 -4
10 3 24 -1 31 -10 7 -8 21 -15 31 -15 15 0 17 -6 12 -37 -7 -46 -2 -41 -41
-48 -24 -4 -34 -1 -38 10 -4 10 -20 15 -50 15 l-44 0 1 -92 c0 -51 4 -115 7
-143 6 -44 10 -50 29 -49 13 1 20 -3 17 -8 -3 -5 -15 -8 -27 -6 -18 2 -23 -3
-25 -29 -4 -36 -14 -33 116 -37 17 0 32 -4 32 -9 0 -4 -30 -6 -66 -4 -70 5
-94 -7 -94 -44 0 -10 -6 -19 -12 -19 -7 0 -23 -3 -36 -6 -13 -4 -22 -3 -21 2
4 22 -2 34 -16 34 -13 0 -20 -18 -16 -42 0 -5 -8 -8 -19 -8 -11 0 -20 5 -20
11 0 5 4 8 9 5 9 -6 21 16 21 40 0 10 -5 9 -20 -6 -11 -11 -20 -28 -20 -38 0
-11 -8 -18 -21 -19 -17 -2 -19 3 -15 29 8 55 -7 66 -19 13 -14 -68 -38 -72
-52 -8 l-10 48 -2 -46 c-1 -38 -5 -48 -22 -52 -15 -4 -22 1 -29 19 -12 30 -18
31 -15 2 2 -13 -4 -29 -11 -36 -15 -14 -21 -4 -42 68 -10 33 -11 31 -8 -22 2
-49 -1 -58 -15 -58 -19 0 -29 19 -29 58 -1 25 -2 25 -12 8 -6 -11 -11 -32 -10
-47 0 -16 -6 -30 -14 -33 -9 -3 -12 -1 -9 4 4 6 -7 10 -25 10 -22 0 -33 6 -40
22 -8 22 -9 22 -9 -4 -1 -22 -4 -25 -23 -20 -13 3 -26 10 -30 16 -5 6 -8 2 -8
-10 0 -12 -7 -25 -16 -28 -21 -8 -44 11 -44 35 0 25 -30 25 -37 1 -3 -13 -13
-19 -31 -18 l-27 1 -5 105 c-6 119 -19 99 -22 -32 l-2 -78 -28 0 c-28 0 -28 1
-28 60 0 33 -4 60 -10 60 -5 0 -10 7 -10 16 0 8 5 12 10 9 6 -3 10 1 10 10 0
9 -4 13 -10 10 -6 -4 -10 15 -11 49 -2 70 -2 73 -12 82 -4 5 -7 -56 -5 -134 2
-118 0 -143 -12 -147 -17 -7 -40 20 -40 46 0 10 -3 20 -8 23 -4 2 -6 50 -6
105 2 81 -1 101 -12 101 -11 0 -14 -25 -14 -128 0 -71 -3 -131 -6 -134 -3 -3
-13 -4 -23 -1 -15 4 -19 20 -25 106 -6 98 -14 158 -20 165 -2 2 -7 -56 -11
-127 -7 -119 -9 -131 -26 -131 -17 0 -19 9 -20 78 -1 42 -1 83 0 90 1 6 -5 12
-14 12 -8 0 -15 9 -15 20 0 25 17 26 23 3 2 -10 4 -1 4 19 0 29 -4 36 -19 35
-16 -1 -18 -12 -18 -119 0 -109 -1 -118 -19 -118 -22 0 -31 47 -33 157 0 34
-4 60 -8 58 -4 -2 -8 27 -9 65 -2 65 0 71 21 79 18 8 27 5 41 -12 11 -13 21
-17 25 -11 10 15 42 25 42 14 0 -6 5 -9 12 -7 6 1 15 -9 19 -23 6 -23 7 -22 8
10 1 26 4 31 11 20 5 -8 10 -10 10 -5 0 6 5 3 10 -5 7 -11 10 -12 10 -2 0 21
25 -7 38 -43 l10 -30 1 33 c1 29 4 32 31 32 22 0 33 -6 40 -22 7 -18 9 -19 9
-5 1 11 9 17 26 17 14 0 25 -4 25 -10 0 -5 7 -7 15 -4 8 4 15 1 15 -5 0 -6 9
-2 20 9 26 26 36 25 56 -5 13 -20 19 -23 30 -14 11 9 14 8 15 -2 0 -8 5 1 11
20 7 26 6 36 -4 42 -10 7 -10 9 2 10 10 0 8 3 -5 9 -17 7 -17 9 -2 9 9 1 17 5
17 10 0 4 -36 9 -79 10 -44 1 -117 6 -163 12 -262 31 -470 50 -635 59 -103 6
-203 14 -223 19 -46 12 -73 11 -82 -3 -5 -6 -8 -2 -8 10 0 20 7 21 115 28 64
3 177 15 253 25 75 11 170 22 210 26 73 7 86 14 87 50 0 11 9 24 21 29 18 8
23 24 34 103 7 51 17 93 23 93 15 0 57 41 57 55 0 14 53 75 66 75 5 0 24 9 43
21 l34 20 -32 20 c-17 10 -31 24 -31 30 0 8 -6 7 -17 -2 -15 -13 -15 -12 -5 8
11 19 9 22 -19 28 -18 4 -27 10 -21 14 7 4 -1 11 -18 18 -25 9 -30 9 -30 -3 0
-8 7 -14 16 -14 8 0 12 -4 9 -10 -11 -18 -43 -10 -51 13 -4 12 -11 25 -16 28
-5 3 17 5 49 3 32 -1 71 -3 87 -3 20 -1 27 -5 22 -16 -3 -8 1 -20 8 -27 7 -7
19 -27 27 -43 12 -24 21 -30 44 -28 40 3 46 13 48 77 1 31 5 56 10 56 4 0 7 9
7 20 0 11 5 20 11 20 7 0 8 -6 3 -17z m-3457 -8 c0 -8 -4 -12 -9 -9 -5 3 -6
10 -3 15 9 13 12 11 12 -6z m2773 -9 c0 -2 -7 -7 -16 -10 -8 -3 -12 -2 -9 4 6
10 25 14 25 6z m629 -19 c8 -10 7 -14 -2 -14 -8 0 -14 6 -14 14 0 7 1 13 2 13
2 0 8 -6 14 -13z m-39 -5 c0 -5 -7 -9 -15 -9 -8 0 -15 4 -15 9 0 4 7 8 15 8 8
0 15 -4 15 -8z m-3606 -28 c4 -9 2 -22 -3 -28 -5 -6 -11 -20 -14 -31 -2 -11
-4 1 -3 27 1 49 9 61 20 32z m-875 -8 c17 -20 3 -46 -24 -46 -32 0 -40 17 -19
41 20 23 28 24 43 5z m3249 7 c-15 -2 -42 -2 -60 0 -18 2 -6 4 27 4 33 0 48
-2 33 -4z m79 1 c-3 -3 -12 -4 -19 -1 -8 3 -5 6 6 6 11 1 17 -2 13 -5z m-2418
-46 c1 -4 -5 -5 -13 -2 -8 3 -12 13 -8 27 5 20 6 20 13 1 4 -10 8 -22 8 -26z
m28 20 c-3 -8 -6 -5 -6 6 -1 11 2 17 5 13 3 -3 4 -12 1 -19z m2036 15 c-13 -2
-33 -2 -45 0 -13 2 -3 4 22 4 25 0 35 -2 23 -4z m1010 -12 c39 -20 34 -35 -10
-26 -21 4 -40 8 -42 10 -6 7 9 37 17 33 4 -2 19 -10 35 -17z m-830 2 c3 7 6 5
6 -5 1 -10 -5 -18 -11 -18 -8 0 -5 -7 6 -15 21 -16 18 -19 -8 -9 -9 3 -16 12
-16 20 0 8 -4 14 -10 14 -5 0 -10 5 -10 10 0 7 6 7 19 0 14 -7 21 -6 24 3z
m759 -25 c-7 -7 -12 -8 -12 -2 0 14 12 26 19 19 2 -3 -1 -11 -7 -17z m-4149
-5 c-13 -2 -35 -2 -50 0 -16 2 -5 4 22 4 28 0 40 -2 28 -4z m3262 -3 c-3 -5
-12 -7 -20 -3 -21 7 -19 13 6 13 11 0 18 -4 14 -10z m65 -10 c6 -11 8 -20 6
-20 -3 0 -10 9 -16 20 -6 11 -8 20 -6 20 3 0 10 -9 16 -20z m3166 -2 c-10 -6
-20 -7 -24 -3 -9 8 20 25 31 18 5 -3 2 -10 -7 -15z m-5296 2 c0 -5 -4 -10 -10
-10 -5 0 -10 5 -10 10 0 6 5 10 10 10 6 0 10 -4 10 -10z m982 -14 c14 -31 4
-56 -21 -56 -25 0 -39 43 -21 65 18 21 29 19 42 -9z m2011 7 c-7 -2 -21 -2
-30 0 -10 3 -4 5 12 5 17 0 24 -2 18 -5z m37 -3 c0 -5 -4 -10 -10 -10 -5 0
-10 5 -10 10 0 6 5 10 10 10 6 0 10 -4 10 -10z m-4228 -12 c18 3 23 -2 32 -39
5 -22 2 -28 -17 -33 l-22 -7 23 -11 c27 -14 28 -28 3 -35 -11 -3 -22 -15 -24
-27 -2 -11 -5 9 -6 45 -1 71 -10 83 -50 72 -15 -4 -21 -1 -21 11 0 9 8 16 20
16 11 0 20 5 20 11 0 6 5 7 13 2 6 -4 19 -6 29 -5z m6382 -3 c11 -8 16 -15 12
-15 -5 0 -3 -6 3 -13 6 -8 8 -17 4 -20 -3 -4 0 -7 7 -7 9 0 8 -6 -5 -20 -10
-11 -24 -20 -32 -20 -7 0 -13 -4 -13 -10 0 -5 -9 -1 -20 10 -24 24 -26 68 -5
76 8 4 15 12 15 20 0 18 10 17 34 -1z m-6089 -4 c-3 -5 5 -12 17 -14 16 -3 13
-5 -11 -6 -29 -1 -32 1 -21 14 14 16 25 21 15 6z m5815 -12 c0 -5 -7 -9 -15
-9 -8 0 -15 7 -15 15 0 9 6 12 15 9 8 -4 15 -10 15 -15z m-6200 -1 c0 -4 -13
-7 -30 -6 -16 1 -30 5 -30 8 0 4 14 7 30 7 17 0 30 -4 30 -9z m330 2 c0 -5 -4
-10 -10 -10 -5 0 -10 5 -10 10 0 6 5 10 10 10 6 0 10 -4 10 -10z m6565 1 c3
-5 1 -12 -5 -16 -5 -3 -10 1 -10 9 0 18 6 21 15 7z m-6972 -8 c-7 -2 -21 -2
-30 0 -10 3 -4 5 12 5 17 0 24 -2 18 -5z m1048 -18 c5 4 9 2 9 -4 0 -5 -4 -13
-10 -16 -5 -3 -10 -1 -10 5 0 7 -7 10 -15 6 -8 -3 -14 0 -12 7 3 19 22 28 25
12 2 -9 8 -13 13 -10z m-345 -31 c-8 -20 -36 -17 -36 4 0 28 22 46 33 26 5 -8
6 -22 3 -30z m-119 14 c-3 -8 -6 -5 -6 6 -1 11 2 17 5 13 3 -3 4 -12 1 -19z
m180 15 c-4 -3 -2 -12 4 -20 9 -10 8 -13 -5 -13 -9 0 -16 6 -16 13 0 14 9 27
18 27 3 0 2 -3 -1 -7z m-667 -45 c0 -10 -4 -18 -10 -18 -5 0 -10 15 -10 33 0
24 3 28 10 17 5 -8 10 -23 10 -32z m49 -23 c1 -39 -2 -65 -9 -65 -11 0 -14 88
-4 114 3 9 7 16 9 16 1 0 3 -29 4 -65z m165 51 c-3 -8 -19 -12 -42 -10 -20 2
-41 3 -47 4 -26 2 22 18 56 18 27 1 36 -3 33 -12z m66 1 c0 10 57 9 67 -1 3
-3 14 -1 24 4 16 9 18 7 16 -19 -1 -16 -6 -27 -10 -24 -5 3 -6 12 -3 22 5 13
4 13 -8 -2 -10 -12 -15 -14 -18 -6 -2 7 -20 12 -41 11 -20 -1 -39 3 -42 9 -5
7 -12 6 -21 -2 -9 -7 -14 -8 -14 -1 0 15 23 21 38 9 7 -5 12 -6 12 0z m3435
-13 c24 -16 35 -54 15 -54 -5 0 -10 -6 -10 -14 0 -42 -72 -39 -83 4 -4 17 1
26 24 38 16 10 27 23 24 30 -6 16 1 15 30 -4z m821 7 c-6 -8 -66 -21 -66 -14
0 5 43 22 58 22 7 1 11 -3 8 -8z m-3801 -11 c3 -5 2 -10 -4 -10 -5 0 -13 5
-16 10 -3 6 -2 10 4 10 5 0 13 -4 16 -10z m50 0 c3 -5 2 -10 -4 -10 -5 0 -13
5 -16 10 -3 6 -2 10 4 10 5 0 13 -4 16 -10z m5438 3 c-13 -2 -33 -2 -45 0 -13
2 -3 4 22 4 25 0 35 -2 23 -4z m-5906 -25 c-3 -8 -6 -5 -6 6 -1 11 2 17 5 13
3 -3 4 -12 1 -19z m2833 12 c0 -5 -4 -10 -10 -10 -5 0 -10 5 -10 10 0 6 5 10
10 10 6 0 10 -4 10 -10z m-3248 -30 c3 -16 1 -30 -4 -30 -4 0 -8 14 -8 30 0
17 2 30 4 30 2 0 6 -13 8 -30z m53 0 c-2 -44 -15 -50 -15 -7 0 21 4 37 8 37 5
0 8 -13 7 -30z m732 24 c-3 -3 -12 -4 -19 -1 -8 3 -5 6 6 6 11 1 17 -2 13 -5z
m1914 -8 c-9 -11 -9 -15 1 -20 7 -3 2 -4 -12 -3 -36 3 -40 37 -5 37 22 0 25
-3 16 -14z m-911 -6 c0 -5 -4 -10 -10 -10 -5 0 -10 5 -10 10 0 6 5 10 10 10 6
0 10 -4 10 -10z m2551 -17 c15 -39 6 -49 -54 -67 -93 -27 -117 -20 -117 34 0
27 40 48 73 39 20 -5 27 -4 27 7 0 9 11 14 30 14 24 0 33 -6 41 -27z m189 23
c0 -3 -4 -8 -10 -11 -5 -3 -10 -1 -10 4 0 6 5 11 10 11 6 0 10 -2 10 -4z
m-4185 -16 c-3 -5 -10 -10 -16 -10 -5 0 -9 5 -9 10 0 6 7 10 16 10 8 0 12 -4
9 -10z m2105 -5 c0 -8 -4 -15 -10 -15 -5 0 -10 7 -10 15 0 8 5 15 10 15 6 0
10 -7 10 -15z m900 -6 c0 -18 -2 -19 -15 -5 -8 8 -15 17 -15 20 0 3 7 6 15 6
9 0 15 -9 15 -21z m298 -12 c2 -19 -1 -27 -13 -27 -19 0 -30 24 -21 46 9 23
31 11 34 -19z m2762 17 c0 -8 -4 -12 -10 -9 -5 3 -10 10 -10 16 0 5 5 9 10 9
6 0 10 -7 10 -16z m30 -16 c0 -26 -13 -16 -17 13 -2 12 1 18 7 14 5 -3 10 -16
10 -27z m-6343 0 c-3 -8 -6 -5 -6 6 -1 11 2 17 5 13 3 -3 4 -12 1 -19z m1331
10 c7 -7 12 -8 12 -3 0 5 7 -1 16 -13 32 -45 -16 -98 -62 -67 -28 18 -29 26
-9 65 17 33 25 36 43 18z m632 -14 c0 -8 -7 -14 -15 -14 -15 0 -21 21 -9 33
10 9 24 -2 24 -19z m-262 -11 c2 -14 -4 -26 -17 -33 -15 -8 -21 -8 -21 0 0 6
-10 10 -22 9 -28 -4 -48 7 -48 26 0 8 14 15 33 18 56 7 72 3 75 -20z m2149 -8
c8 -21 2 -24 -25 -14 -13 5 -20 13 -17 19 9 15 35 12 42 -5z m163 -10 c0 -29
-12 -32 -34 -9 -23 22 -20 34 9 34 20 0 25 -5 25 -25z m-2450 3 c0 -7 -4 -19
-9 -26 -6 -11 -9 -9 -14 7 -2 11 -2 22 1 25 10 10 22 6 22 -6z m4674 -3 c11
-8 15 -15 10 -15 -6 0 -19 7 -30 15 -10 8 -14 14 -9 14 6 0 19 -6 29 -14z
m2703 -21 c-3 -3 -12 -4 -19 -1 -8 3 -5 6 6 6 11 1 17 -2 13 -5z m-697 -14 c0
-5 -5 -10 -11 -10 -5 0 -7 5 -4 10 3 6 8 10 11 10 2 0 4 -4 4 -10z m-3762 -17
c-4 -22 -22 -20 -26 1 -2 10 3 16 13 16 10 0 15 -7 13 -17z m-3408 -9 c0 -9
-5 -14 -12 -12 -18 6 -21 28 -4 28 9 0 16 -7 16 -16z m-264 -33 c-11 -18 -36
-13 -36 7 0 10 3 22 7 26 10 10 37 -20 29 -33z m-266 -6 c0 -16 -6 -25 -15
-25 -15 0 -21 31 -8 43 13 14 23 6 23 -18z m8304 -1 c3 -8 2 -12 -4 -9 -6 3
-10 10 -10 16 0 14 7 11 14 -7z m-2522 -16 c-3 -14 -2 -19 6 -14 7 4 12 1 12
-6 0 -7 3 -23 6 -35 5 -20 2 -23 -20 -23 -15 0 -26 6 -26 14 0 9 -22 17 -67
24 -66 10 -66 10 -15 9 41 -2 52 1 52 14 0 20 20 39 41 39 13 0 16 -6 11 -22z
m-1105 6 c-3 -3 -12 -4 -19 -1 -8 3 -5 6 6 6 11 1 17 -2 13 -5z m1183 -5 c0
-18 -13 -38 -21 -33 -5 3 -6 -2 -3 -10 3 -9 10 -13 15 -10 5 3 9 -4 9 -15 0
-11 -4 -22 -10 -26 -12 -8 -40 47 -40 79 0 21 4 25 25 24 14 -1 25 -6 25 -9z
m140 7 c0 -9 -40 -13 -46 -5 -3 5 6 9 20 9 14 0 26 -2 26 -4z m-6730 -48 c0
-10 -6 -18 -14 -18 -17 0 -28 48 -12 53 13 5 26 -12 26 -35z m5646 27 c12 -11
12 -18 2 -34 -16 -26 -47 -23 -54 6 -11 41 22 59 52 28z m1021 -38 c-2 -19 0
-26 9 -23 7 3 15 0 18 -7 2 -7 5 4 6 23 l1 35 14 -32 c13 -30 16 -32 39 -23
23 8 26 7 26 -10 0 -16 -5 -19 -27 -16 -16 2 -47 7 -71 11 -28 4 -40 11 -36
18 5 8 2 7 -7 0 -21 -21 -29 -15 -29 22 0 33 2 35 31 33 28 -2 30 -5 26 -31z
m268 -17 c1 -40 1 -40 -37 -40 -40 0 -54 19 -15 21 15 0 17 2 7 6 -8 3 -26 17
-39 29 -22 22 -22 24 -4 24 10 0 24 -5 31 -12 9 -9 12 -9 12 1 0 7 4 10 9 6 5
-3 13 0 16 6 11 17 19 1 20 -41z m-1438 23 c3 -7 -4 -9 -17 -6 -28 7 -34 20
-8 18 12 -1 23 -6 25 -12z m239 -10 c-10 -10 -19 5 -10 18 6 11 8 11 12 0 2
-7 1 -15 -2 -18z m584 20 c-14 -3 -29 -8 -35 -13 -5 -4 -19 -3 -30 1 -18 9
-18 9 3 5 12 -2 22 0 22 5 0 5 15 8 33 8 27 -2 28 -2 7 -6z m-105 -23 c3 -5
-1 -10 -9 -10 -9 0 -16 5 -16 10 0 6 4 10 9 10 6 0 13 -4 16 -10z m2755 -6 c0
-8 -4 -12 -10 -9 -5 3 -10 10 -10 16 0 5 5 9 10 9 6 0 10 -7 10 -16z m-3030 2
c0 -2 -7 -7 -16 -10 -8 -3 -12 -2 -9 4 6 10 25 14 25 6z m177 -2 c-3 -3 -12
-4 -19 -1 -8 3 -5 6 6 6 11 1 17 -2 13 -5z m2378 -4 c3 -5 -1 -10 -10 -10 -9
0 -13 5 -10 10 3 6 8 10 10 10 2 0 7 -4 10 -10z m215 0 c0 -5 -2 -10 -4 -10
-3 0 -8 5 -11 10 -3 6 -1 10 4 10 6 0 11 -4 11 -10z m-2456 -15 c-7 -18 -36
-28 -58 -19 -12 5 -15 2 -9 -12 5 -14 3 -16 -11 -11 -10 4 -22 7 -27 7 -6 0
-7 5 -4 10 4 6 11 8 16 5 5 -4 9 0 9 8 0 10 11 15 36 15 19 0 38 3 41 6 10 10
13 7 7 -9z m76 -6 c0 -5 5 -7 10 -4 6 3 10 2 10 -3 0 -14 -11 -21 -26 -15 -16
6 -19 33 -4 33 6 0 10 -5 10 -11z m1595 1 c3 -5 -1 -10 -9 -10 -9 0 -16 5 -16
10 0 6 4 10 9 10 6 0 13 -4 16 -10z m-1809 -9 c-4 -5 0 -11 6 -13 7 -3 0 -7
-15 -10 -27 -5 -27 -5 -11 13 18 20 29 25 20 10z m-6646 -17 c0 -8 -4 -12 -10
-9 -5 3 -10 10 -10 16 0 5 5 9 10 9 6 0 10 -7 10 -16z m4845 6 c3 -5 2 -10 -4
-10 -5 0 -13 5 -16 10 -3 6 -2 10 4 10 5 0 13 -4 16 -10z m2065 -10 c0 -5 -2
-10 -4 -10 -3 0 -8 5 -11 10 -3 6 -1 10 4 10 6 0 11 -4 11 -10z m1167 -12 c-3
-8 -6 -5 -6 6 -1 11 2 17 5 13 3 -3 4 -12 1 -19z m943 18 c0 -3 -4 -8 -10 -11
-5 -3 -10 -1 -10 4 0 6 5 11 10 11 6 0 10 -2 10 -4z m-6743 -38 c-3 -8 -6 -5
-6 6 -1 11 2 17 5 13 3 -3 4 -12 1 -19z m4413 3 c0 -6 -4 -12 -8 -15 -5 -3 -9
1 -9 9 0 8 4 15 9 15 4 0 8 -4 8 -9z m2270 -16 c0 -8 -4 -15 -10 -15 -5 0 -10
7 -10 15 0 8 5 15 10 15 6 0 10 -7 10 -15z m-1534 -7 c10 13 12 12 12 -11 0
-26 -2 -27 -21 -14 -12 8 -22 20 -24 28 -3 9 0 9 9 -3 11 -15 13 -15 24 0z
m-4806 -24 c0 -2 -9 -4 -21 -4 -11 0 -18 4 -14 10 5 8 35 3 35 -6z m6485 5 c4
-6 4 -13 0 -17 -4 -4 -10 -1 -12 6 -3 6 -9 10 -14 6 -5 -3 -9 0 -9 5 0 14 27
14 35 0z m-7455 -13 c0 -3 -4 -8 -10 -11 -5 -3 -10 -1 -10 4 0 6 5 11 10 11 6
0 10 -2 10 -4z m5024 -45 c2 -35 0 -40 -9 -27 -7 8 -15 13 -18 9 -4 -3 -7 1
-7 10 0 10 5 17 11 17 6 0 8 9 4 21 -5 15 -3 20 5 17 7 -2 13 -23 14 -47z
m-4117 22 c-4 -3 -2 -12 4 -20 9 -10 8 -13 -3 -13 -7 0 -14 9 -15 20 -1 11 3
20 9 20 6 0 8 -3 5 -7z m-84 -20 c-7 -2 -19 -2 -25 0 -7 3 -2 5 12 5 14 0 19
-2 13 -5z m1005 0 c-10 -2 -26 -2 -35 0 -10 3 -2 5 17 5 19 0 27 -2 18 -5z
m49 -9 c-3 -3 -12 -4 -19 -1 -8 3 -5 6 6 6 11 1 17 -2 13 -5z m4038 -12 c20
-11 20 -11 -1 -12 -12 0 -27 6 -33 14 -15 18 3 17 34 -2z m-5312 -9 c-7 -2
-19 -2 -25 0 -7 3 -2 5 12 5 14 0 19 -2 13 -5z m4927 -8 c0 -8 -4 -15 -10 -15
-5 0 -10 7 -10 15 0 8 5 15 10 15 6 0 10 -7 10 -15z m-5047 -2 c-7 -2 -21 -2
-30 0 -10 3 -4 5 12 5 17 0 24 -2 18 -5z m693 -20 c-10 -10 -19 5 -10 18 6 11
8 11 12 0 2 -7 1 -15 -2 -18z m-839 1 c-3 -3 -12 -4 -19 -1 -8 3 -5 6 6 6 11
1 17 -2 13 -5z m488 -4 c-16 -4 -43 -8 -60 -8 l-30 0 30 8 c17 4 44 8 60 8
l30 0 -30 -8z m2292 -6 c-3 -3 -12 -4 -19 -1 -8 3 -5 6 6 6 11 1 17 -2 13 -5z
m-2930 -10 c-3 -3 -12 -4 -19 -1 -8 3 -5 6 6 6 11 1 17 -2 13 -5z m463 -4 c0
-5 -12 -10 -27 -9 -25 0 -26 1 -8 9 27 12 35 12 35 0z m53 3 c-7 -2 -19 -2
-25 0 -7 3 -2 5 12 5 14 0 19 -2 13 -5z m2054 -15 c-3 -8 -6 -5 -6 6 -1 11 2
17 5 13 3 -3 4 -12 1 -19z m233 -4 c0 -19 -4 -25 -17 -22 -10 2 -16 8 -14 13
1 6 7 9 12 8 5 -2 8 0 8 5 -2 12 1 22 6 22 3 0 5 -12 5 -26z m237 20 c-3 -3
-12 -4 -19 -1 -8 3 -5 6 6 6 11 1 17 -2 13 -5z m61 -1 c-10 -2 -26 -2 -35 0
-10 3 -2 5 17 5 19 0 27 -2 18 -5z m2330 -26 c3 -21 -1 -27 -17 -27 -25 0 -32
10 -24 39 8 31 37 23 41 -12z m-7062 8 c4 -8 4 -22 0 -30 -7 -19 -36 -8 -36
14 0 32 26 43 36 16z m921 -7 c-3 -8 -6 -5 -6 6 -1 11 2 17 5 13 3 -3 4 -12 1
-19z m610 16 c-3 -3 -12 -4 -19 -1 -8 3 -5 6 6 6 11 1 17 -2 13 -5z m498 -4
c-3 -5 -10 -10 -16 -10 -5 0 -9 5 -9 10 0 6 7 10 16 10 8 0 12 -4 9 -10z
m2525 1 c-25 -4 -35 -11 -34 -23 3 -69 5 -79 14 -73 6 3 10 2 10 -3 0 -6 9 -8
20 -5 16 4 20 14 20 48 0 37 3 43 24 47 32 6 35 -7 43 -158 7 -148 -1 -214
-26 -214 -14 0 -21 14 -31 58 -7 31 -15 51 -17 45 -3 -7 -16 -13 -29 -13 -20
0 -24 -5 -24 -30 0 -19 -7 -33 -20 -40 -17 -9 -20 -8 -20 10 0 19 -4 20 -57
14 -32 -3 -80 -12 -107 -20 -61 -17 -59 -17 -53 0 3 7 1 18 -3 22 -5 5 -5 15
0 24 8 13 10 12 10 -3 0 -11 4 -15 12 -11 7 4 8 3 4 -4 -10 -16 17 -15 84 3
30 8 67 15 83 15 25 0 27 3 27 40 l0 40 -72 -5 c-40 -3 -100 -9 -133 -14 -33
-4 -64 -5 -70 -1 -15 11 -76 -1 -82 -16 -10 -26 -33 -2 -33 36 0 69 10 100 34
99 11 0 39 4 61 10 22 6 55 11 73 11 18 0 31 3 29 8 -3 4 19 6 49 5 58 -1 80
11 39 21 -14 4 -25 11 -25 16 0 14 13 12 29 -2 11 -10 13 -10 7 0 -5 9 6 12
43 12 50 0 51 1 51 30 0 30 1 30 53 29 46 -1 48 -2 17 -8z m308 2 c-10 -2 -28
-2 -40 0 -13 2 -5 4 17 4 22 1 32 -1 23 -4z m-2888 -7 c0 -3 -4 -8 -10 -11 -5
-3 -10 -1 -10 4 0 6 5 11 10 11 6 0 10 -2 10 -4z m2740 -11 c0 -8 5 -15 10
-15 6 0 10 -50 10 -131 0 -84 4 -128 10 -124 6 4 10 62 10 141 0 110 3 134 14
134 8 0 18 -5 21 -10 4 -6 11 -8 16 -5 5 4 9 -12 9 -34 0 -23 5 -41 10 -41 6
0 10 14 10 30 0 23 4 30 20 30 12 0 20 -7 21 -17 0 -16 1 -15 8 2 7 19 8 19
18 0 10 -17 11 -17 17 3 10 31 44 28 52 -3 3 -14 5 -97 3 -185 -3 -129 -7
-163 -19 -170 -27 -17 -30 -11 -30 74 0 47 -5 88 -10 91 -6 4 -7 13 -1 24 7
13 6 18 -5 18 -11 0 -14 -20 -14 -100 0 -84 -2 -98 -15 -93 -8 3 -15 1 -15 -4
0 -5 -7 -7 -16 -3 -11 4 -15 15 -12 34 3 17 0 29 -6 30 -6 0 -5 3 1 6 10 3 10
10 2 25 -7 14 -8 18 0 14 7 -5 10 15 8 59 -1 36 -6 65 -11 65 -4 0 -5 12 -1
28 4 18 3 24 -4 17 -6 -6 -12 -66 -13 -134 -3 -119 -4 -124 -26 -132 -21 -8
-23 -6 -17 12 5 15 4 19 -4 15 -7 -5 -11 2 -11 16 0 13 -5 30 -10 38 -9 14
-14 -11 -13 -66 0 -5 -12 -8 -28 -6 -21 3 -29 10 -30 26 -1 11 -3 39 -4 61 -2
22 2 55 8 73 9 25 9 35 0 40 -9 6 -11 33 -6 95 5 76 8 87 24 87 11 0 19 -7 19
-15z m253 8 c-7 -2 -19 -2 -25 0 -7 3 -2 5 12 5 14 0 19 -2 13 -5z m-3128 -13
c4 -6 -6 -10 -22 -9 -25 0 -26 1 -8 9 11 5 21 9 22 9 1 1 5 -3 8 -9z m62 4
c-3 -3 -12 -4 -19 -1 -8 3 -5 6 6 6 11 1 17 -2 13 -5z m2323 -14 c0 -13 -7
-20 -20 -20 -19 0 -19 1 -3 20 10 11 19 20 20 20 2 0 3 -9 3 -20z m143 13 c-7
-2 -19 -2 -25 0 -7 3 -2 5 12 5 14 0 19 -2 13 -5z m2961 -8 c8 -21 -3 -45 -20
-45 -8 0 -17 7 -20 15 -8 21 2 45 20 45 7 0 16 -7 20 -15z m-6794 -5 c0 -5 -7
-10 -15 -10 -8 0 -15 5 -15 10 0 6 7 10 15 10 8 0 15 -4 15 -10z m4710 2 c0
-5 -7 -9 -15 -9 -8 0 -15 4 -15 9 0 4 7 8 15 8 8 0 15 -4 15 -8z m-4794 -19
c-3 -18 -19 -27 -37 -21 -8 3 -6 10 5 21 22 22 35 22 32 0z m1234 7 c0 -5 -10
-10 -22 -9 -22 0 -22 1 -3 9 11 5 21 9 23 9 1 1 2 -3 2 -9z m3653 3 c-7 -2
-19 -2 -25 0 -7 3 -2 5 12 5 14 0 19 -2 13 -5z m-3166 -9 c-3 -3 -12 -4 -19
-1 -8 3 -5 6 6 6 11 1 17 -2 13 -5z m2163 -1 c-8 -3 -22 -11 -30 -17 -13 -10
-13 -9 -1 7 7 9 21 17 30 16 13 0 14 -1 1 -6z m1097 1 c-3 -3 -12 -4 -19 -1
-8 3 -5 6 6 6 11 1 17 -2 13 -5z m-3839 -11 c-10 -2 -28 -2 -40 0 -13 2 -5 4
17 4 22 1 32 -1 23 -4z m522 3 c0 -3 -4 -8 -10 -11 -5 -3 -10 -1 -10 4 0 6 5
11 10 11 6 0 10 -2 10 -4z m2153 -3 c-7 -2 -19 -2 -25 0 -7 3 -2 5 12 5 14 0
19 -2 13 -5z m-3743 -13 c0 -5 -4 -10 -10 -10 -5 0 -10 5 -10 10 0 6 5 10 10
10 6 0 10 -4 10 -10z m967 4 c-3 -3 -12 -4 -19 -1 -8 3 -5 6 6 6 11 1 17 -2
13 -5z m533 -4 c0 -5 -4 -10 -10 -10 -5 0 -10 5 -10 10 0 6 5 10 10 10 6 0 10
-4 10 -10z m43 3 c-7 -2 -19 -2 -25 0 -7 3 -2 5 12 5 14 0 19 -2 13 -5z m-683
-13 c0 -5 -7 -10 -15 -10 -8 0 -15 5 -15 10 0 6 7 10 15 10 8 0 15 -4 15 -10z
m2980 0 c12 -8 9 -10 -12 -10 -16 0 -28 5 -28 10 0 13 20 13 40 0z m-3050 -21
c0 -5 -4 -9 -10 -9 -5 0 -10 7 -10 16 0 8 5 12 10 9 6 -3 10 -10 10 -16z m507
-11 c-3 -8 -6 -5 -6 6 -1 11 2 17 5 13 3 -3 4 -12 1 -19z m-857 8 c0 -3 -4 -8
-10 -11 -5 -3 -10 -1 -10 4 0 6 5 11 10 11 6 0 10 -2 10 -4z m247 -2 c-3 -3
-12 -4 -19 -1 -8 3 -5 6 6 6 11 1 17 -2 13 -5z m-777 -13 c0 -6 -4 -13 -10
-16 -5 -3 -10 1 -10 9 0 9 5 16 10 16 6 0 10 -4 10 -9z m1873 -18 c-7 -2 -21
-2 -30 0 -10 3 -4 5 12 5 17 0 24 -2 18 -5z m287 -13 c0 -5 -5 -10 -11 -10 -5
0 -8 -4 -4 -9 3 -5 1 -12 -5 -16 -6 -4 -10 5 -10 19 0 16 6 26 15 26 8 0 15
-4 15 -10z m-1443 -22 c-3 -8 -6 -5 -6 6 -1 11 2 17 5 13 3 -3 4 -12 1 -19z
m428 12 c3 -5 1 -10 -4 -10 -6 0 -11 5 -11 10 0 6 2 10 4 10 3 0 8 -4 11 -10z
m2505 -44 c0 -37 -5 -60 -16 -71 -14 -13 -19 -14 -25 -3 -7 11 -11 10 -18 -2
-5 -8 -7 -18 -4 -24 3 -5 1 -6 -6 -2 -26 17 -74 15 -88 -2 -10 -12 -16 -14
-19 -4 -8 18 -34 15 -34 -4 0 -11 -5 -14 -16 -10 -9 3 -20 6 -25 6 -6 0 -7 5
-4 10 3 6 1 10 -4 10 -6 0 -11 -4 -11 -10 0 -5 -22 -10 -50 -10 -39 0 -50 4
-50 16 0 11 -6 14 -22 8 -25 -8 -29 -8 -71 -6 -16 1 -26 6 -22 11 6 11 -62 27
-72 17 -4 -3 6 -6 20 -6 15 0 27 -4 27 -10 0 -5 -7 -7 -16 -3 -10 4 -20 -1
-26 -11 -8 -13 -13 -15 -24 -5 -7 6 -11 15 -8 20 3 5 0 9 -6 9 -7 0 -10 -7 -6
-15 4 -11 -2 -15 -24 -15 -16 0 -32 -4 -35 -10 -3 -5 -16 -10 -28 -11 -21 0
-21 -1 -2 -9 25 -11 -43 -11 -125 -1 -30 3 -72 3 -94 -2 -28 -6 -43 -4 -55 6
-32 29 -79 48 -84 34 -8 -22 -19 1 -20 43 -2 38 -1 40 23 36 14 -3 63 -8 110
-11 47 -3 117 -10 155 -16 44 -6 110 -7 180 -1 88 7 112 6 118 -5 11 -18 28
-17 21 2 -4 10 0 15 11 15 13 0 16 -7 13 -30 -4 -24 -2 -28 10 -18 7 7 12 22
9 35 -6 31 11 29 19 -2 4 -16 13 -25 26 -25 12 0 17 -4 12 -12 -5 -7 -3 -8 5
-4 7 5 10 14 7 21 -3 9 15 15 70 20 87 8 91 19 6 17 -52 -1 -54 1 -12 14 13 5
13 6 0 14 -20 13 -33 12 -25 0 4 -6 -7 -10 -25 -10 -18 0 -29 -4 -25 -10 3 -5
-1 -10 -9 -10 -9 0 -16 6 -16 14 0 16 117 47 170 45 20 -1 46 3 58 10 12 7 26
10 31 7 4 -3 21 -1 37 4 16 4 41 9 57 9 26 1 27 -1 27 -53z m-4410 34 c0 -5
-2 -10 -4 -10 -3 0 -8 5 -11 10 -3 6 -1 10 4 10 6 0 11 -4 11 -10z m1410 -10
c0 -11 -4 -20 -10 -20 -5 0 -10 9 -10 20 0 11 5 20 10 20 6 0 10 -9 10 -20z
m940 -10 c0 -5 -4 -10 -10 -10 -5 0 -10 5 -10 10 0 6 5 10 10 10 6 0 10 -4 10
-10z m-134 -26 c-4 -9 -9 -15 -11 -12 -3 3 -3 13 1 22 4 9 9 15 11 12 3 -3 3
-13 -1 -22z m1054 2 c0 -8 -4 -18 -10 -21 -5 -3 -10 3 -10 14 0 12 5 21 10 21
6 0 10 -6 10 -14z m-190 -22 c0 -8 -4 -12 -10 -9 -5 3 -10 10 -10 16 0 5 5 9
10 9 6 0 10 -7 10 -16z m3648 -6 c17 -2 15 -25 -3 -25 -8 0 -15 4 -15 8 0 4
-12 7 -27 7 -49 -1 -63 2 -63 12 0 6 19 7 48 4 26 -3 53 -6 60 -6z m98 -19 c3
-5 -6 -9 -20 -9 -29 0 -56 9 -56 19 0 10 69 1 76 -10z m194 -15 c0 -2 -16 -4
-36 -4 -19 0 -33 4 -30 8 5 8 66 4 66 -4z m-100 2 c0 -2 -7 -6 -15 -10 -8 -3
-15 -1 -15 4 0 6 7 10 15 10 8 0 15 -2 15 -4z m240 -18 c0 -11 -68 -10 -75 2
-4 6 10 9 34 8 23 -1 41 -5 41 -10z m103 3 c10 -1 16 -4 14 -8 -6 -10 -107 -4
-107 6 0 5 17 7 38 5 20 -2 45 -3 55 -3z m-6541 -36 c0 -5 -5 -11 -11 -13 -6
-2 -11 4 -11 13 0 9 5 15 11 13 6 -2 11 -8 11 -13z m-558 -10 c-4 -8 -8 -15
-10 -15 -2 0 -4 7 -4 15 0 8 4 15 10 15 5 0 7 -7 4 -15z m6646 6 c0 -8 -90 -3
-99 5 -2 2 19 4 47 4 29 0 52 -4 52 -9z m183 2 c-7 -2 -19 -2 -25 0 -7 3 -2 5
12 5 14 0 19 -2 13 -5z m-2457 -28 c17 -13 17 -14 2 -15 -25 0 -22 -20 3 -20
11 0 18 -4 15 -9 -3 -4 -15 -8 -28 -7 -17 1 -23 8 -25 34 -4 35 3 39 33 17z
m44 5 c0 -5 -4 -10 -9 -10 -6 0 -13 5 -16 10 -3 6 1 10 9 10 9 0 16 -4 16 -10z
m2660 -2 c0 -4 -12 -8 -26 -8 -14 0 -23 4 -19 9 6 11 45 10 45 -1z m-2789 -7
c-8 -5 -20 -7 -28 -4 -21 8 -15 13 15 13 20 0 23 -3 13 -9z m2504 -1 c-11 -5
-27 -9 -35 -9 -9 0 -8 4 5 9 11 5 27 9 35 9 9 0 8 -4 -5 -9z m-5930 -20 c-3
-5 -10 -10 -16 -10 -5 0 -9 5 -9 10 0 6 7 10 16 10 8 0 12 -4 9 -10z m1722 -9
c1 -16 -2 -17 -23 -7 -30 14 -31 26 -1 26 15 0 23 -6 24 -19z m2018 9 c3 -5
-1 -10 -10 -10 -9 0 -13 5 -10 10 3 6 8 10 10 10 2 0 7 -4 10 -10z m2012 4
c-3 -3 -12 -4 -19 -1 -8 3 -5 6 6 6 11 1 17 -2 13 -5z m122 2 c-2 -2 -24 -6
-49 -9 -30 -4 -38 -3 -25 3 19 8 83 14 74 6z m-3979 -15 c0 -6 -4 -13 -10 -16
-5 -3 -10 1 -10 9 0 9 5 16 10 16 6 0 10 -4 10 -9z m1258 2 c-10 -2 -26 -2
-35 0 -10 3 -2 5 17 5 19 0 27 -2 18 -5z m102 -15 c0 -6 -7 -7 -16 -4 -9 3
-25 6 -37 6 -16 0 -18 3 -9 9 17 10 62 2 62 -11z m347 2 c1 -11 -2 -20 -8 -20
-5 0 -9 9 -9 20 0 11 4 20 8 20 4 0 8 -9 9 -20z m2610 14 c-3 -3 -12 -4 -19
-1 -8 3 -5 6 6 6 11 1 17 -2 13 -5z m-4150 -36 c-15 -9 -19 -4 -11 16 5 14 9
15 15 5 5 -8 3 -17 -4 -21z m1257 20 c-7 -10 -54 -10 -54 0 0 5 13 8 29 8 17
0 28 -3 25 -8z m122 -4 c-3 -8 22 -15 87 -22 l92 -11 -97 5 c-108 5 -138 11
-116 25 9 6 4 9 -15 9 -16 0 -26 -4 -23 -8 3 -5 -1 -9 -9 -9 -8 0 -15 7 -15
14 0 10 13 13 50 12 35 -2 49 -6 46 -15z m2604 6 c0 -5 -2 -10 -4 -10 -3 0 -8
5 -11 10 -3 6 -1 10 4 10 6 0 11 -4 11 -10z m50 0 c0 -5 -5 -10 -11 -10 -5 0
-7 5 -4 10 3 6 8 10 11 10 2 0 4 -4 4 -10z m-445 -30 c-83 -24 -216 -51 -165
-34 46 16 228 62 245 62 11 0 -25 -12 -80 -28z m-5330 11 c3 -5 1 -12 -5 -16
-5 -3 -10 1 -10 9 0 18 6 21 15 7z m2470 -10 c-3 -6 -14 -10 -23 -10 -15 1
-15 2 1 6 9 2 17 9 17 15 0 6 3 9 6 5 3 -3 3 -10 -1 -16z m3125 5 c0 -2 -7 -7
-16 -10 -8 -3 -12 -2 -9 4 6 10 25 14 25 6z m-2949 -26 c6 0 8 -4 5 -9 -8 -13
-39 -7 -44 9 -3 9 1 11 12 7 10 -4 22 -7 27 -7z m134 -11 c-4 -5 -1 -9 5 -9 7
0 6 -5 -2 -14 -11 -12 -14 -11 -19 8 -7 25 -2 39 12 30 5 -3 7 -10 4 -15z
m670 11 c18 -8 17 -9 -7 -9 -16 -1 -28 4 -28 9 0 12 8 12 35 0z m2038 3 c-7
-2 -19 -2 -25 0 -7 3 -2 5 12 5 14 0 19 -2 13 -5z m-1946 -19 c-3 -3 -12 -4
-19 -1 -8 3 -5 6 6 6 11 1 17 -2 13 -5z m2016 -1 c-7 -2 -19 -2 -25 0 -7 3 -2
5 12 5 14 0 19 -2 13 -5z m-1903 -7 c0 -9 -30 -14 -35 -6 -4 6 3 10 14 10 12
0 21 -2 21 -4z m1485 -1 c-28 -11 -209 -55 -224 -54 -24 1 33 20 119 39 68 16
130 24 105 15z m792 -17 c-3 -8 -6 -5 -6 6 -1 11 2 17 5 13 3 -3 4 -12 1 -19z
m-2187 2 c0 -5 -4 -10 -9 -10 -6 0 -13 5 -16 10 -3 6 1 10 9 10 9 0 16 -4 16
-10z m-677 -7 c-7 -2 -21 -2 -30 0 -10 3 -4 5 12 5 17 0 24 -2 18 -5z m139 -8
c43 -4 80 -10 83 -14 3 -6 -67 0 -90 7 -3 1 -27 2 -55 2 -29 0 -50 5 -50 11 0
6 8 8 18 5 9 -2 52 -7 94 -11z m598 6 c0 -4 -11 -6 -25 -3 -14 2 -25 6 -25 8
0 2 11 4 25 4 14 0 25 -4 25 -9z m638 2 c-10 -2 -26 -2 -35 0 -10 3 -2 5 17 5
19 0 27 -2 18 -5z m-580 -10 c-10 -2 -26 -2 -35 0 -10 3 -2 5 17 5 19 0 27 -2
18 -5z m1359 1 c-3 -3 -12 -4 -19 -1 -8 3 -5 6 6 6 11 1 17 -2 13 -5z m-1272
-14 c8 -13 -15 -13 -35 0 -12 8 -11 10 7 10 12 0 25 -4 28 -10z m-585 -21 c0
-5 -4 -9 -10 -9 -5 0 -10 7 -10 16 0 8 5 12 10 9 6 -3 10 -10 10 -16z m633 14
c-7 -2 -19 -2 -25 0 -7 3 -2 5 12 5 14 0 19 -2 13 -5z m897 -3 c0 -5 -15 -10
-32 -9 -28 0 -30 2 -13 9 28 12 45 12 45 0z m200 6 c0 -2 -7 -7 -16 -10 -8 -3
-12 -2 -9 4 6 10 25 14 25 6z m-966 -12 c25 -4 46 -11 46 -16 0 -5 -4 -7 -10
-3 -5 3 -29 6 -54 7 -45 1 -92 18 -50 18 12 0 42 -3 68 -6z m1573 -26 c-3 -7
-5 -2 -5 12 0 14 2 19 5 13 2 -7 2 -19 0 -25z m-2572 -1 c7 -6 -7 -7 -40 -3
-27 3 -54 11 -59 16 -7 7 6 8 39 4 28 -4 55 -11 60 -17z m280 13 c3 -5 -1 -10
-9 -10 -9 0 -16 5 -16 10 0 6 4 10 9 10 6 0 13 -4 16 -10z m2203 -21 c-3 -8
-7 -3 -11 10 -4 17 -3 21 5 13 5 -5 8 -16 6 -23z m52 10 c0 -5 -4 -9 -10 -9
-5 0 -10 7 -10 16 0 8 5 12 10 9 6 -3 10 -10 10 -16z m-1437 4 c-7 -2 -21 -2
-30 0 -10 3 -4 5 12 5 17 0 24 -2 18 -5z m48 -11 c-7 -2 -18 1 -23 6 -8 8 -4
9 13 5 13 -4 18 -8 10 -11z m1299 -35 c0 -29 -17 -11 -22 24 -5 29 -4 30 9 14
7 -11 13 -27 13 -38z m-2367 36 c-13 -2 -33 -2 -45 0 -13 2 -3 4 22 4 25 0 35
-2 23 -4z m62 -3 c18 -8 17 -9 -7 -9 -16 -1 -28 4 -28 9 0 12 8 12 35 0z
m1086 0 c11 0 18 -4 15 -8 -7 -12 -66 -2 -66 10 0 6 7 7 16 4 9 -3 25 -6 35
-6z m-974 -16 c-3 -3 -12 -4 -19 -1 -8 3 -5 6 6 6 11 1 17 -2 13 -5z m597 -3
c9 -14 -4 -41 -20 -41 -8 0 -14 -6 -15 -12 0 -10 -2 -10 -6 0 -2 6 -12 12 -22
12 -9 0 -26 7 -37 15 -18 13 -17 14 13 10 21 -2 33 1 37 11 6 16 42 19 50 5z
m449 2 c-7 -2 -21 -2 -30 0 -10 3 -4 5 12 5 17 0 24 -2 18 -5z m1089 -18 c3
-14 1 -25 -3 -25 -5 0 -9 11 -9 25 0 14 2 25 4 25 2 0 6 -11 8 -25z m-58 -1
c3 -8 2 -12 -4 -9 -6 3 -10 10 -10 16 0 14 7 11 14 -7z m-1344 -36 c0 -5 -9
-8 -20 -8 -19 0 -44 32 -33 43 6 7 52 -24 53 -35z m1304 26 c3 -8 2 -12 -4 -9
-6 3 -10 10 -10 16 0 14 7 11 14 -7z m-110 -9 c3 -8 1 -15 -4 -15 -6 0 -10 7
-10 15 0 8 2 15 4 15 2 0 6 -7 10 -15z m-51 -45 c-5 -27 -8 -30 -13 -15 -9 25
0 69 11 58 5 -5 6 -25 2 -43z m128 33 c13 -16 12 -17 -3 -4 -17 13 -22 21 -14
21 2 0 10 -8 17 -17z m-170 -10 c1 -10 3 -28 4 -40 1 -12 -1 -20 -5 -18 -11 7
-18 75 -8 75 4 0 9 -8 9 -17z m-41 -44 c0 -3 -6 -11 -13 -17 -10 -9 -13 -3
-14 26 -1 34 0 35 13 17 8 -10 14 -22 14 -26z m-60 27 c0 -2 -7 -7 -16 -10 -8
-3 -12 -2 -9 4 6 10 25 14 25 6z m-63 -53 c-3 -10 -5 -2 -5 17 0 19 2 27 5 18
2 -10 2 -26 0 -35z m-2717 23 c0 -3 -4 -8 -10 -11 -5 -3 -10 -1 -10 4 0 6 5
11 10 11 6 0 10 -2 10 -4z m2568 -44 c6 -25 6 -44 1 -48 -5 -3 -9 7 -9 23 0
15 -3 39 -7 53 -3 14 -3 23 0 20 3 -3 10 -25 15 -48z m107 30 c0 -18 -20 -15
-23 4 -3 10 1 15 10 12 7 -3 13 -10 13 -16z m105 3 c0 -8 -7 -15 -15 -15 -8 0
-15 7 -15 15 0 8 7 15 15 15 8 0 15 -7 15 -15z m-764 -22 c-10 -10 -19 5 -10
18 6 11 8 11 12 0 2 -7 1 -15 -2 -18z m604 6 c0 -11 -4 -17 -10 -14 -5 3 -10
13 -10 21 0 8 5 14 10 14 6 0 10 -9 10 -21z m-237 -9 c-3 -12 -8 -19 -11 -16
-5 6 5 36 12 36 2 0 2 -9 -1 -20z m-1853 -11 c0 -5 -4 -9 -10 -9 -5 0 -10 7
-10 16 0 8 5 12 10 9 6 -3 10 -10 10 -16z m1987 -26 c-3 -10 -5 -4 -5 12 0 17
2 24 5 18 2 -7 2 -21 0 -30z m1141 -45 c1 -40 -1 -67 -4 -60 -3 6 -10 9 -16 6
-6 -4 -14 -1 -18 5 -4 7 -32 15 -64 18 -48 5 -56 4 -51 -10 4 -8 1 -18 -4 -22
-6 -3 -8 -11 -5 -17 4 -7 2 -8 -5 -4 -8 6 -9 12 -2 20 8 10 4 16 -15 24 -36
17 -44 15 -43 -10 0 -13 3 -17 6 -10 2 6 9 12 14 12 6 0 5 -9 -1 -21 -7 -11
-14 -19 -16 -16 -3 2 -18 -9 -35 -26 -22 -22 -33 -27 -42 -18 -16 16 -26 183
-10 169 12 -9 144 3 238 22 75 15 72 17 73 -62z m-5172 -35 c-10 -10 -19 5
-10 18 6 11 8 11 12 0 2 -7 1 -15 -2 -18z m1924 8 c13 -26 5 -30 -75 -38 -43
-4 -65 -2 -65 5 0 6 -3 18 -7 28 -4 10 -2 15 3 11 7 -4 64 1 126 12 4 0 12 -8
18 -18z m2833 5 c4 -10 0 -12 -14 -9 -10 3 -16 9 -13 14 8 13 21 11 27 -5z
m-563 0 c0 -2 -9 -6 -20 -9 -11 -3 -20 -1 -20 4 0 5 9 9 20 9 11 0 20 -2 20
-4z m388 -12 c12 -8 22 -10 22 -5 0 6 5 11 11 11 8 0 8 -5 -1 -15 -10 -12 -10
-15 0 -15 8 0 11 -3 7 -6 -3 -3 -23 6 -44 20 -20 14 -33 26 -28 26 6 0 21 -7
33 -16z m-2183 -25 c19 -17 35 -35 35 -39 0 -12 -61 -31 -74 -23 -6 4 -5 0 2
-9 11 -14 10 -18 -6 -27 -19 -10 -102 -31 -102 -26 0 27 88 155 106 155 2 0
19 -14 39 -31z m-212 -11 c-5 -23 -2 -34 12 -44 24 -18 14 -27 -19 -18 -17 4
-26 13 -26 26 0 11 4 16 11 12 8 -4 8 0 0 15 -13 24 -7 41 14 41 11 0 13 -8 8
-32z m1979 4 c-19 -6 -44 6 -37 18 4 7 14 6 28 -2 14 -7 17 -13 9 -16z m953
16 c4 4 6 0 3 -8 -2 -8 -14 -16 -26 -18 -24 -4 -25 -2 -16 22 5 12 10 14 19 6
6 -5 15 -6 20 -2z m-331 -7 c3 -4 -6 -6 -19 -3 -14 2 -25 6 -25 8 0 8 39 4 44
-5z m271 -1 c-3 -5 -12 -10 -18 -10 -7 0 -6 4 3 10 19 12 23 12 15 0z m-371
-9 c7 -10 -23 -20 -43 -13 -11 4 -11 6 0 13 18 11 36 11 43 0z m-2538 -90 c0
-11 -4 -17 -8 -15 -4 3 -8 12 -8 20 0 8 4 14 8 14 4 0 8 -9 8 -19z m54 -10 c0
-8 -33 -41 -40 -41 -4 0 -5 11 -3 24 4 17 11 24 24 23 10 -1 19 -3 19 -6z
m-80 -11 c0 -5 -8 -10 -17 -10 -15 0 -16 2 -3 10 19 12 20 12 20 0z m-43 -32
c-3 -8 -6 -5 -6 6 -1 11 2 17 5 13 3 -3 4 -12 1 -19z m1678 -8 c3 -5 1 -10 -4
-10 -6 0 -11 5 -11 10 0 6 2 10 4 10 3 0 8 -4 11 -10z m1860 0 c3 -5 1 -10 -4
-10 -6 0 -11 5 -11 10 0 6 2 10 4 10 3 0 8 -4 11 -10z m-3145 -40 c0 -24 3
-27 23 -22 19 5 20 3 10 -10 -7 -8 -10 -18 -6 -22 4 -4 -7 -5 -24 -2 -26 5
-37 0 -66 -27 -18 -19 -41 -33 -50 -31 -9 1 -19 -2 -23 -7 -3 -5 -10 -9 -15
-9 -6 0 -7 5 -3 11 5 8 1 8 -14 0 -11 -6 -32 -11 -45 -11 -22 0 -25 5 -30 52
-4 29 -3 55 1 59 8 8 142 39 167 39 10 0 14 -5 10 -12 -4 -7 -1 -6 7 3 15 18
39 28 51 22 4 -2 7 -17 7 -33z m-3661 27 c-2 -1 -13 -9 -24 -17 -19 -14 -19
-14 -6 3 7 9 18 17 24 17 6 0 8 -1 6 -3z m4721 -13 c0 -8 -5 -12 -10 -9 -6 4
-8 11 -5 16 9 14 15 11 15 -7z m-2030 -9 c19 -4 40 -11 45 -17 11 -10 -27 -5
-130 18 l-60 13 55 -4 c30 -2 71 -7 90 -10z m1130 5 c0 -5 -7 -10 -15 -10 -8
0 -15 5 -15 10 0 6 7 10 15 10 8 0 15 -4 15 -10z m78 -42 c7 -7 12 -15 12 -18
0 -11 -90 -9 -96 2 -4 6 8 9 27 8 49 -3 56 -1 39 10 -8 5 -10 10 -4 10 5 0 15
-5 22 -12z m-140 -23 c-3 -3 -9 2 -12 12 -6 14 -5 15 5 6 7 -7 10 -15 7 -18z
m-3693 5 c3 -5 2 -10 -4 -10 -5 0 -13 5 -16 10 -3 6 -2 10 4 10 5 0 13 -4 16
-10z m1378 -28 c-4 -10 -8 -12 -11 -4 -2 7 -8 12 -13 12 -6 0 -8 -4 -5 -8 2
-4 -8 -9 -24 -10 -21 -2 -28 2 -24 11 2 7 22 13 44 14 32 2 38 -1 33 -15z
m3242 -22 c3 -6 -1 -7 -9 -4 -10 4 -16 1 -16 -7 0 -7 -3 -10 -6 -6 -7 7 4 27
16 27 5 0 12 -4 15 -10z m-925 -10 c-8 -5 -24 -10 -35 -10 -17 0 -17 2 -5 10
8 5 24 10 35 10 17 0 17 -2 5 -10z m-5 -24 c-16 -7 -34 -11 -40 -8 -5 4 1 9
15 13 42 12 57 9 25 -5z m-255 -26 c0 -5 -8 -10 -17 -10 -15 0 -16 2 -3 10 19
12 20 12 20 0z m24 -6 c3 -8 2 -12 -4 -9 -6 3 -10 10 -10 16 0 14 7 11 14 -7z
m1170 -6 c-7 -11 -54 -10 -54 1 0 5 13 8 29 7 16 0 27 -4 25 -8z"/>
<path d="M3598 2874 c-5 -4 -8 -21 -8 -38 0 -21 3 -27 11 -19 6 6 9 23 7 38
-2 15 -6 23 -10 19z"/>
<path d="M8258 2873 c7 -3 16 -2 19 1 4 3 -2 6 -13 5 -11 0 -14 -3 -6 -6z"/>
<path d="M2155 2610 c28 -12 37 -12 30 0 -3 6 -16 10 -28 9 -21 0 -21 -1 -2
-9z"/>
<path d="M7110 2595 c0 -8 5 -15 10 -15 6 0 10 7 10 15 0 8 -4 15 -10 15 -5 0
-10 -7 -10 -15z"/>
<path d="M4928 2513 c12 -2 20 -9 17 -14 -4 -5 -1 -9 4 -9 6 0 11 7 11 15 0
10 -9 15 -27 14 -24 -2 -25 -2 -5 -6z"/>
<path d="M7888 2313 c7 -3 16 -2 19 1 4 3 -2 6 -13 5 -11 0 -14 -3 -6 -6z"/>
<path d="M7930 2310 c-13 -8 -12 -10 3 -10 9 0 17 5 17 10 0 12 -1 12 -20 0z"/>
<path d="M5596 2334 c-9 -22 -8 -24 9 -24 8 0 15 6 15 14 0 22 -17 28 -24 10z"/>
<path d="M5710 1980 c-9 -6 -10 -10 -3 -10 6 0 15 5 18 10 8 12 4 12 -15 0z"/>
<path d="M5554 1458 c-3 -4 7 -8 23 -9 15 0 36 -2 46 -4 9 -2 15 0 12 5 -7 11
-75 18 -81 8z"/>
<path d="M5707 1438 c-7 -4 74 -7 178 -7 105 1 183 3 175 5 -31 7 -342 9 -353
2z"/>
<path d="M6118 1443 c12 -2 30 -2 40 0 9 3 -1 5 -23 4 -22 0 -30 -2 -17 -4z"/>
<path d="M5421 1374 c0 -11 3 -14 6 -6 3 7 2 16 -1 19 -3 4 -6 -2 -5 -13z"/>
<path d="M5516 1373 c-14 -14 -3 -21 52 -33 122 -26 544 -22 645 7 43 12 4 11
-106 -2 -122 -14 -237 -10 -249 9 -5 7 -8 6 -8 -3 0 -11 -16 -12 -87 -6 -49 5
-101 10 -118 11 -35 3 -95 13 -112 19 -6 2 -14 1 -17 -2z"/>
<path d="M6645 1292 c-64 -10 -65 -11 -65 -52 0 -31 3 -38 15 -34 8 4 15 12
15 19 0 6 9 20 20 30 20 18 20 17 20 -88 0 -100 1 -106 20 -104 11 1 20 8 20
17 3 86 13 187 21 195 23 23 3 29 -66 17z"/>
<path d="M6540 1269 c0 -5 -7 -6 -15 -3 -16 6 -20 -12 -9 -40 7 -18 22 -6 42
30 9 16 8 21 -4 21 -7 0 -14 -4 -14 -8z"/>
<path d="M6444 1245 c-3 -8 -3 -19 0 -24 9 -13 36 -2 36 14 0 19 -30 27 -36
10z"/>
<path d="M6388 1233 c-19 -5 -25 -43 -8 -43 6 0 10 7 10 15 0 9 10 20 23 25
23 9 6 11 -25 3z"/>
<path d="M6322 1210 c0 -14 2 -19 5 -12 2 6 2 18 0 25 -3 6 -5 1 -5 -13z"/>
<path d="M6201 1191 c-1 -27 2 -32 11 -23 8 8 8 17 0 34 -10 22 -11 21 -11
-11z"/>
<path d="M6140 1189 c0 -18 2 -19 15 -9 15 12 12 30 -6 30 -5 0 -9 -10 -9 -21z"/>
<path d="M6265 1200 c3 -5 8 -10 11 -10 2 0 4 5 4 10 0 6 -5 10 -11 10 -5 0
-7 -4 -4 -10z"/>
<path d="M6081 1183 c7 -10 14 -19 15 -21 1 -1 4 6 7 18 4 15 0 20 -15 20 -18
0 -19 -2 -7 -17z"/>
<path d="M6582 1150 c0 -14 2 -19 5 -12 2 6 2 18 0 25 -3 6 -5 1 -5 -13z"/>
<path d="M6582 1095 c0 -16 2 -22 5 -12 2 9 2 23 0 30 -3 6 -5 -1 -5 -18z"/>
<path d="M5996 1017 c-5 -15 -5 -44 0 -65 l8 -37 4 33 c2 17 2 47 0 65 l-4 32
-8 -28z"/>
<path d="M6678 950 c-2 -38 1 -60 8 -60 6 0 10 24 10 60 -1 78 -13 78 -18 0z"/>
<path d="M6583 950 c0 -25 2 -35 4 -22 2 12 2 32 0 45 -2 12 -4 2 -4 -23z"/>
<path d="M6602 950 c0 -14 2 -19 5 -12 2 6 2 18 0 25 -3 6 -5 1 -5 -13z"/>
<path d="M6102 940 c0 -14 2 -19 5 -12 2 6 2 18 0 25 -3 6 -5 1 -5 -13z"/>
<path d="M6208 862 c-5 -36 6 -63 20 -47 5 6 3 25 -3 44 l-12 35 -5 -32z"/>
<path d="M7300 1585 c0 -8 4 -15 10 -15 5 0 7 7 4 15 -4 8 -8 15 -10 15 -2 0
-4 -7 -4 -15z"/>
<path d="M4706 1114 c-8 -22 -8 -26 3 -19 5 3 12 -7 14 -22 3 -23 4 -22 6 9 1
39 -13 59 -23 32z"/>
<path d="M5058 1088 c-18 -16 -28 -35 -28 -54 0 -22 3 -26 10 -14 8 13 10 12
10 -2 0 -20 8 -22 28 -9 9 5 12 24 10 56 l-3 49 -27 -26z"/>
<path d="M4808 1093 c6 -2 18 -2 25 0 6 3 1 5 -13 5 -14 0 -19 -2 -12 -5z"/>
<path d="M4790 1070 c0 -6 7 -10 15 -10 8 0 15 2 15 4 0 2 -7 6 -15 10 -8 3
-15 1 -15 -4z"/>
<path d="M5400 1090 c0 -5 5 -10 11 -10 5 0 7 5 4 10 -3 6 -8 10 -11 10 -2 0
-4 -4 -4 -10z"/>
<path d="M4538 1083 c7 -3 16 -2 19 1 4 3 -2 6 -13 5 -11 0 -14 -3 -6 -6z"/>
<path d="M4520 1018 c0 -14 8 -18 33 -17 27 2 28 2 7 6 -14 3 -28 10 -32 17
-5 7 -8 5 -8 -6z"/>
<path d="M4438 993 c12 -2 30 -2 40 0 9 3 -1 5 -23 4 -22 0 -30 -2 -17 -4z"/>
<path d="M4334 973 c7 -7 77 -5 85 2 2 3 -17 5 -44 5 -27 0 -45 -3 -41 -7z"/>
<path d="M3910 960 c0 -5 5 -10 11 -10 5 0 7 5 4 10 -3 6 -8 10 -11 10 -2 0
-4 -4 -4 -10z"/>
<path d="M8765 3740 c-3 -5 3 -10 14 -10 12 0 21 5 21 10 0 6 -6 10 -14 10 -8
0 -18 -4 -21 -10z"/>
<path d="M6060 3728 c0 -11 12 -10 30 2 12 7 10 9 -8 7 -12 0 -22 -5 -22 -9z"/>
<path d="M6242 3548 c1 -51 3 -73 5 -48 3 31 7 40 14 30 6 -10 9 -1 8 30 0 34
-2 40 -9 25 -7 -16 -9 -17 -9 -3 -1 9 4 20 9 23 15 10 12 35 -5 35 -12 0 -15
-16 -13 -92z"/>
<path d="M395 3611 c-3 -5 -1 -12 5 -16 5 -3 10 1 10 9 0 18 -6 21 -15 7z"/>
<path d="M6040 3609 c0 -5 5 -7 10 -4 6 3 10 8 10 11 0 2 -4 4 -10 4 -5 0 -10
-5 -10 -11z"/>
<path d="M2720 3600 c-13 -8 -12 -10 3 -10 9 0 17 5 17 10 0 12 -1 12 -20 0z"/>
<path d="M6702 3589 c2 -7 12 -13 22 -15 23 -3 15 20 -8 24 -11 3 -17 -1 -14
-9z"/>
<path d="M410 3575 c0 -5 5 -17 10 -25 5 -8 10 -10 10 -5 0 6 -5 17 -10 25 -5
8 -10 11 -10 5z"/>
<path d="M6162 3555 c0 -16 2 -22 5 -12 2 9 2 23 0 30 -3 6 -5 -1 -5 -18z"/>
<path d="M6028 3523 c7 -3 16 -2 19 1 4 3 -2 6 -13 5 -11 0 -14 -3 -6 -6z"/>
<path d="M3785 3510 c-3 -5 -1 -10 4 -10 6 0 11 5 11 10 0 6 -2 10 -4 10 -3 0
-8 -4 -11 -10z"/>
<path d="M2916 3490 c4 -8 10 -28 14 -45 l8 -30 1 28 c1 16 5 36 10 45 7 14 4
17 -15 17 -18 0 -23 -4 -18 -15z"/>
<path d="M6070 3490 c0 -14 15 -19 29 -11 9 6 7 10 -8 14 -12 3 -21 1 -21 -3z"/>
<path d="M1482 3465 c0 -16 2 -22 5 -12 2 9 2 23 0 30 -3 6 -5 -1 -5 -18z"/>
<path d="M3720 3456 c0 -9 5 -16 10 -16 6 0 10 4 10 9 0 6 -4 13 -10 16 -5 3
-10 -1 -10 -9z"/>
<path d="M5483 3463 c9 -2 25 -2 35 0 9 3 1 5 -18 5 -19 0 -27 -2 -17 -5z"/>
<path d="M6020 3458 c0 -5 6 -8 13 -8 8 0 24 -9 37 -20 24 -21 50 -26 50 -11
0 6 -5 13 -11 17 -8 5 -8 9 1 14 7 5 -9 9 -39 11 -28 2 -51 1 -51 -3z"/>
<path d="M7080 3457 c0 -10 8 -17 18 -17 9 0 13 4 7 8 -5 4 -13 11 -17 16 -5
5 -8 2 -8 -7z"/>
<path d="M3778 3443 c6 -2 18 -2 25 0 6 3 1 5 -13 5 -14 0 -19 -2 -12 -5z"/>
<path d="M5215 3440 c3 -5 8 -10 11 -10 2 0 4 5 4 10 0 6 -5 10 -11 10 -5 0
-7 -4 -4 -10z"/>
<path d="M1001 3424 c0 -11 3 -14 6 -6 3 7 2 16 -1 19 -3 4 -6 -2 -5 -13z"/>
<path d="M5733 3433 c9 -2 23 -2 30 0 6 3 -1 5 -18 5 -16 0 -22 -2 -12 -5z"/>
<path d="M3722 3378 c1 -38 2 -39 5 -10 2 18 9 30 14 27 5 -4 9 1 9 9 0 9 -7
16 -15 16 -11 0 -15 -11 -13 -42z"/>
<path d="M3336 3363 c-6 -14 -5 -15 5 -6 7 7 10 15 7 18 -3 3 -9 -2 -12 -12z"/>
<path d="M6215 3370 c-3 -5 -2 -10 4 -10 5 0 13 5 16 10 3 6 2 10 -4 10 -5 0
-13 -4 -16 -10z"/>
<path d="M3847 3363 c6 -4 13 -26 16 -48 4 -40 4 -40 3 4 -1 30 -6 46 -16 48
-10 3 -11 2 -3 -4z"/>
<path d="M8021 3354 c0 -11 3 -14 6 -6 3 7 2 16 -1 19 -3 4 -6 -2 -5 -13z"/>
<path d="M1008 3335 c2 -14 6 -25 8 -25 2 0 4 11 4 25 0 14 -4 25 -9 25 -4 0
-6 -11 -3 -25z"/>
<path d="M3741 3344 c0 -11 3 -14 6 -6 3 7 2 16 -1 19 -3 4 -6 -2 -5 -13z"/>
<path d="M6192 3283 c-1 -48 -6 -83 -12 -83 -5 0 -10 -11 -10 -25 0 -18 5 -25
20 -25 13 0 20 6 19 18 0 10 -3 12 -6 4 -2 -6 -9 -10 -14 -6 -13 8 -11 22 4
26 9 2 11 25 6 88 l-5 85 -2 -82z"/>
<path d="M6215 3340 c3 -5 11 -10 16 -10 6 0 7 5 4 10 -3 6 -11 10 -16 10 -6
0 -7 -4 -4 -10z"/>
<path d="M3147 3326 c-4 -10 -3 -15 3 -11 6 3 10 -2 10 -12 0 -15 2 -16 10 -3
12 19 13 33 1 26 -5 -4 -11 -1 -13 6 -3 7 -7 5 -11 -6z"/>
<path d="M3785 3330 c3 -5 10 -10 16 -10 5 0 9 5 9 10 0 6 -7 10 -16 10 -8 0
-12 -4 -9 -10z"/>
<path d="M9548 3323 c7 -3 16 -2 19 1 4 3 -2 6 -13 5 -11 0 -14 -3 -6 -6z"/>
<path d="M8728 3313 c7 -3 16 -2 19 1 4 3 -2 6 -13 5 -11 0 -14 -3 -6 -6z"/>
<path d="M6220 3238 c0 -23 3 -29 9 -19 8 12 4 51 -5 51 -2 0 -4 -15 -4 -32z"/>
<path d="M7947 3263 c-10 -9 -9 -23 2 -23 5 0 11 7 15 15 5 15 -5 20 -17 8z"/>
<path d="M6172 3230 c0 -14 2 -19 5 -12 2 6 2 18 0 25 -3 6 -5 1 -5 -13z"/>
<path d="M6948 3233 c6 -2 18 -2 25 0 6 3 1 5 -13 5 -14 0 -19 -2 -12 -5z"/>
<path d="M3480 3220 c0 -5 5 -10 10 -10 6 0 10 5 10 10 0 6 -4 10 -10 10 -5 0
-10 -4 -10 -10z"/>
<path d="M6737 3203 c-4 -3 -7 -11 -7 -17 0 -6 5 -5 12 2 6 6 9 14 7 17 -3 3
-9 2 -12 -2z"/>
<path d="M193 3185 c0 -8 6 -15 13 -15 8 0 11 6 8 15 -4 8 -9 15 -13 15 -4 0
-8 -7 -8 -15z"/>
<path d="M4042 3180 c0 -14 2 -19 5 -12 2 6 2 18 0 25 -3 6 -5 1 -5 -13z"/>
<path d="M6228 3193 c7 -3 16 -2 19 1 4 3 -2 6 -13 5 -11 0 -14 -3 -6 -6z"/>
<path d="M271 3174 c0 -11 3 -14 6 -6 3 7 2 16 -1 19 -3 4 -6 -2 -5 -13z"/>
<path d="M6220 3166 c0 -8 7 -16 15 -20 10 -4 15 1 15 14 0 11 -7 20 -15 20
-8 0 -15 -6 -15 -14z"/>
<path d="M6268 3173 c6 -2 18 -2 25 0 6 3 1 5 -13 5 -14 0 -19 -2 -12 -5z"/>
<path d="M200 3150 c0 -5 5 -10 10 -10 6 0 10 5 10 10 0 6 -4 10 -10 10 -5 0
-10 -4 -10 -10z"/>
<path d="M5388 3133 c7 -3 16 -2 19 1 4 3 -2 6 -13 5 -11 0 -14 -3 -6 -6z"/>
<path d="M6229 3121 c11 -7 11 -9 0 -14 -8 -3 -5 -6 8 -6 16 -1 21 3 17 14 -4
8 -14 15 -23 15 -13 0 -13 -2 -2 -9z"/>
<path d="M6564 3045 c0 -49 1 -71 3 -48 2 23 2 64 0 90 -2 26 -3 8 -3 -42z"/>
<path d="M7020 3120 c0 -5 5 -10 11 -10 5 0 7 5 4 10 -3 6 -8 10 -11 10 -2 0
-4 -4 -4 -10z"/>
<path d="M7480 3126 c0 -2 7 -6 15 -10 8 -3 15 -1 15 4 0 6 -7 10 -15 10 -8 0
-15 -2 -15 -4z"/>
<path d="M5380 3110 c0 -13 18 -22 24 -11 3 5 -1 11 -9 15 -8 3 -15 1 -15 -4z"/>
<path d="M6270 3098 c0 -9 6 -19 13 -21 7 -3 5 -6 -5 -6 -10 -1 -18 -9 -18
-18 0 -14 2 -15 9 -5 4 7 14 12 21 10 8 -2 14 5 15 15 0 9 -4 17 -9 16 -5 0
-13 5 -17 13 -7 10 -9 9 -9 -4z"/>
<path d="M6228 3083 c7 -3 16 -2 19 1 4 3 -2 6 -13 5 -11 0 -14 -3 -6 -6z"/>
<path d="M5140 3063 c0 -15 9 -18 53 -16 28 0 78 1 110 2 44 1 57 5 57 16 0
12 -19 15 -110 15 -98 0 -110 -2 -110 -17z"/>
<path d="M4118 3053 c-5 -18 -1 -22 33 -25 22 -2 39 0 39 4 0 5 -9 8 -21 8
-11 0 -17 5 -14 10 3 6 1 10 -4 10 -6 0 -11 -6 -12 -12 0 -7 -4 -4 -8 6 -7 19
-8 19 -13 -1z"/>
<path d="M5388 3053 c7 -3 16 -2 19 1 4 3 -2 6 -13 5 -11 0 -14 -3 -6 -6z"/>
<path d="M7015 3050 c4 -6 11 -8 16 -5 14 9 11 15 -7 15 -8 0 -12 -5 -9 -10z"/>
<path d="M5031 3034 c0 -11 3 -14 6 -6 3 7 2 16 -1 19 -3 4 -6 -2 -5 -13z"/>
<path d="M6228 3043 c7 -3 16 -2 19 1 4 3 -2 6 -13 5 -11 0 -14 -3 -6 -6z"/>
<path d="M4042 2998 c-2 -37 2 -48 13 -48 8 0 15 5 15 10 0 6 -4 10 -9 10 -6
0 -12 17 -14 38 -3 34 -4 33 -5 -10z"/>
<path d="M6288 3033 c7 -3 16 -2 19 1 4 3 -2 6 -13 5 -11 0 -14 -3 -6 -6z"/>
<path d="M5371 3014 c0 -11 3 -14 6 -6 3 7 2 16 -1 19 -3 4 -6 -2 -5 -13z"/>
<path d="M5423 2970 c0 -30 2 -43 4 -27 2 15 2 39 0 55 -2 15 -4 2 -4 -28z"/>
<path d="M5401 2994 c0 -11 3 -14 6 -6 3 7 2 16 -1 19 -3 4 -6 -2 -5 -13z"/>
<path d="M6288 3003 c7 -3 16 -2 19 1 4 3 -2 6 -13 5 -11 0 -14 -3 -6 -6z"/>
<path d="M4080 2990 c0 -5 5 -10 11 -10 5 0 7 5 4 10 -3 6 -8 10 -11 10 -2 0
-4 -4 -4 -10z"/>
<path d="M4118 2983 c7 -3 16 -2 19 1 4 3 -2 6 -13 5 -11 0 -14 -3 -6 -6z"/>
<path d="M6288 2983 c7 -3 16 -2 19 1 4 3 -2 6 -13 5 -11 0 -14 -3 -6 -6z"/>
<path d="M4185 2960 c4 -6 11 -8 16 -5 14 9 11 15 -7 15 -8 0 -12 -5 -9 -10z"/>
<path d="M4780 2950 c0 -5 5 -10 11 -10 5 0 7 5 4 10 -3 6 -8 10 -11 10 -2 0
-4 -4 -4 -10z"/>
<path d="M4865 2930 c-3 -5 -1 -10 4 -10 6 0 11 5 11 10 0 6 -2 10 -4 10 -3 0
-8 -4 -11 -10z"/>
<path d="M7118 2908 c5 -5 16 -8 23 -6 8 3 3 7 -10 11 -17 4 -21 3 -13 -5z"/>
<path d="M7160 2900 c0 -5 5 -10 11 -10 5 0 7 5 4 10 -3 6 -8 10 -11 10 -2 0
-4 -4 -4 -10z"/>
<path d="M5442 2860 c0 -19 2 -27 5 -17 2 9 2 25 0 35 -3 9 -5 1 -5 -18z"/>
<path d="M7170 2834 c0 -8 5 -12 10 -9 6 4 8 11 5 16 -9 14 -15 11 -15 -7z"/>
<path d="M9740 2830 c0 -5 5 -10 10 -10 6 0 10 5 10 10 0 6 -4 10 -10 10 -5 0
-10 -4 -10 -10z"/>
<path d="M5441 2804 c0 -11 3 -14 6 -6 3 7 2 16 -1 19 -3 4 -6 -2 -5 -13z"/>
<path d="M10025 2810 c-3 -5 -1 -10 4 -10 6 0 11 5 11 10 0 6 -2 10 -4 10 -3
0 -8 -4 -11 -10z"/>
<path d="M6973 2783 c9 -2 23 -2 30 0 6 3 -1 5 -18 5 -16 0 -22 -2 -12 -5z"/>
<path d="M5368 2703 c6 -2 18 -2 25 0 6 3 1 5 -13 5 -14 0 -19 -2 -12 -5z"/>
<path d="M5420 2700 c0 -6 7 -10 15 -10 8 0 15 2 15 4 0 2 -7 6 -15 10 -8 3
-15 1 -15 -4z"/>
<path d="M5490 2553 c0 -16 5 -35 10 -43 7 -11 9 -3 7 27 -2 47 -17 60 -17 16z"/>
<path d="M6103 2353 c7 -7 159 -4 166 3 2 2 -35 4 -84 4 -49 0 -85 -3 -82 -7z"/>
<path d="M6433 2343 c4 -3 2 -12 -3 -18 -8 -9 2 -13 40 -14 31 0 49 3 45 9 -3
6 -21 10 -38 10 -24 0 -28 3 -17 10 12 8 10 10 -9 10 -13 0 -21 -3 -18 -7z"/>
<path d="M6530 2322 c0 -5 6 -9 13 -9 6 0 17 -2 22 -3 19 -5 35 0 35 10 0 6
-16 10 -35 10 -19 0 -35 -4 -35 -8z"/>
<path d="M3565 1490 c-4 -7 3 -10 19 -8 35 5 45 18 13 18 -14 0 -29 -5 -32
-10z"/>
<path d="M4158 1493 c7 -3 16 -2 19 1 4 3 -2 6 -13 5 -11 0 -14 -3 -6 -6z"/>
<path d="M1459 7 c7 -7 14 -8 21 -1 6 6 2 10 -12 11 -16 2 -18 -1 -9 -10z"/>
</g>
</svg>
